<svg width="84" height="89" viewBox="0 0 84 89" fill="none" xmlns="http://www.w3.org/2000/svg">
<path d="M14.7165 88.469C12.7755 87.777 11.7624 85.643 12.4544 83.702L19.2635 64.595L30.3554 68.548L19.1545 86.898C18.2325 88.407 16.3805 89.062 14.7165 88.469Z" fill="#338BA1"/>
<path d="M27.1727 71.769C27.4157 71.774 27.6598 71.783 27.9058 71.795L29.7587 68.76L19.5057 65.106L16.6367 73.158C20.0657 72.204 23.6397 71.696 27.1727 71.769Z" fill="#016E8B"/>
<path d="M69.8607 88.469C71.8017 87.777 72.8147 85.643 72.1227 83.702L65.3137 64.595L54.2217 68.548L65.4227 86.898C66.3447 88.407 68.1967 89.062 69.8607 88.469Z" fill="#338BA1"/>
<path d="M57.4048 71.769C57.1618 71.774 56.9179 71.783 56.6719 71.795L54.8188 68.76L65.0718 65.106L67.9409 73.158C64.5119 72.204 60.9378 71.696 57.4048 71.769Z" fill="#016E8B"/>
<path d="M42.2883 74.433C62.646 74.433 79.1492 57.9298 79.1492 37.572C79.1492 17.2142 62.646 0.710999 42.2883 0.710999C21.9305 0.710999 5.42725 17.2142 5.42725 37.572C5.42725 57.9298 21.9305 74.433 42.2883 74.433Z" fill="#338BA1"/>
<path d="M49.1072 2.41501C59.8992 7.42901 67.4042 18.365 67.4042 31.027C67.4042 48.416 53.2572 62.562 35.8692 62.562C22.9962 62.562 11.9072 54.805 7.01221 43.723C9.93821 60.55 24.6382 73.388 42.2892 73.388C62.0382 73.388 78.1052 57.321 78.1052 37.572C78.1042 20.155 65.6052 5.60901 49.1072 2.41501Z" fill="#016E8B"/>
<path d="M57.9007 33.7541C59.4241 25.122 53.6614 16.8894 45.0293 15.366C36.3973 13.8426 28.1646 19.6053 26.6412 28.2374C25.1178 36.8694 30.8805 45.1021 39.5126 46.6255C48.1447 48.1489 56.3773 42.3862 57.9007 33.7541Z" fill="#003744"/>
<path d="M52.8192 26.53C52.8192 29.077 50.7542 31.142 48.2072 31.142C45.6602 31.142 43.5962 29.077 43.5962 26.53C43.5962 23.983 45.6612 21.919 48.2072 21.919C50.7542 21.919 52.8192 23.984 52.8192 26.53Z" fill="white"/>
<path d="M45.1385 34.593C45.1385 36.167 43.8625 37.443 42.2885 37.443C40.7145 37.443 39.4385 36.167 39.4385 34.593C39.4385 33.019 40.7145 31.743 42.2885 31.743C43.8625 31.743 45.1385 33.019 45.1385 34.593Z" fill="white"/>
<path d="M13.1623 40.697C13.2683 43.824 13.6923 56.369 10.3313 57.155C7.37928 57.845 1.42227 49.48 0.860271 40.697C0.277271 31.584 5.51629 22.223 8.59929 22.607C12.4883 23.092 13.1083 39.091 13.1623 40.697Z" fill="#F3A06A"/>
<path d="M71.2045 40.697C71.0985 43.824 70.6745 56.369 74.0355 57.155C76.9875 57.845 82.9445 49.48 83.5065 40.697C84.0895 31.584 78.8505 22.223 75.7675 22.607C71.8795 23.092 71.2595 39.091 71.2045 40.697Z" fill="#F3A06A"/>
<path d="M10.0944 47.984C10.0584 47.992 10.0184 47.996 9.97535 47.996C7.95135 47.996 3.54936 42.162 2.24336 35.107C1.92636 36.915 1.78737 38.791 1.90437 40.631C2.42737 48.806 7.70435 56.149 9.97535 56.149C10.0184 56.149 10.0584 56.145 10.0944 56.137C10.3524 56.077 12.6044 55.131 12.1184 40.732C12.1124 40.552 12.1023 40.377 12.0953 40.198C11.7183 47.347 10.2964 47.937 10.0944 47.984Z" fill="#E0804B"/>
<path d="M74.3927 47.997C74.3487 47.997 74.3086 47.993 74.2736 47.985C74.0716 47.938 72.6496 47.348 72.2716 40.206C72.2646 40.383 72.2546 40.556 72.2486 40.734C71.7606 55.131 74.0146 56.077 74.2726 56.138C74.3086 56.146 74.3486 56.15 74.3916 56.15C76.6616 56.15 81.9396 48.808 82.4616 40.632C82.5796 38.792 82.4396 36.916 82.1226 35.109C80.8186 42.163 76.4157 47.997 74.3927 47.997Z" fill="#E0804B"/>
</svg>
