<svg width="172" height="224" viewBox="0 0 172 224" fill="none" xmlns="http://www.w3.org/2000/svg">
<path d="M104.175 94.305C101.994 83.85 99.0849 73.847 95.2549 64.975C91.0059 67.821 86.6419 70.407 82.1179 72.619C78.6919 74.284 75.2249 75.657 71.7189 76.836C71.7519 86.031 34.7399 199.601 58.3789 216.083C74.0689 227.008 109.734 227.558 119.245 204.191C125.739 188.208 111.851 131.132 104.175 94.305Z" fill="#FDD69C"/>
<path d="M86.536 125.896C94.568 126.269 102.761 125.946 110.494 123.893C108.271 113.422 106.042 103.258 104.175 94.305C101.994 83.85 99.085 73.847 95.255 64.975C91.006 67.821 86.642 70.407 82.118 72.619C78.692 74.284 75.225 75.657 71.719 76.836C71.736 80.311 66.459 98.668 61.167 121.064C68.794 124.976 78.223 125.494 86.536 125.896Z" fill="#DFA984"/>
<path d="M170.825 93.077C177.014 81.523 157.234 62.906 148.524 54.909C135.767 43.177 130.224 26.985 119.211 13.864C112.853 6.285 104.448 0.901989 94.3171 0.304989C72.1711 -1.00401 59.7031 19.341 47.5271 34.289C37.8721 46.15 27.0041 57.009 15.7491 67.334C10.9501 71.747 3.37111 78.97 0.0741096 86.273C-0.44289 90.684 2.4911 95.113 5.7801 98.215C17.9301 109.689 36.3611 112.193 52.7221 113.955C72.5331 116.071 99.1401 116.654 118.757 113.551C134.66 111.03 162.527 108.606 170.825 93.077Z" fill="#E63B1C"/>
<path d="M22.3361 75.431C19.7421 74.106 15.9851 75.674 13.8191 77.111C11.4271 78.695 9.60909 80.763 7.96309 83.074C6.43509 85.19 5.33509 89.102 6.73409 91.558C8.23709 94.223 10.6441 95.032 13.5861 94.726C14.4261 94.627 15.2741 94.336 16.0811 93.949C18.8371 93.125 21.4791 91.154 22.9591 89.344C26.3191 85.239 28.0311 78.338 22.3361 75.431Z" fill="white"/>
<path d="M44.9183 65.913C44.3453 64.83 43.0623 64.717 42.0103 65.121C40.5963 65.67 39.6513 67.56 40.6293 68.838C40.9193 69.226 41.3963 69.274 41.8643 69.193C42.2523 69.291 42.6883 69.275 43.0613 69.08C44.0463 68.595 45.5643 67.141 44.9183 65.913Z" fill="white"/>
<path d="M61.676 96.6C60.981 93.061 58.501 90.815 55.617 90.104C54.397 89.392 52.983 89.151 51.569 89.425C44.862 88.682 41.534 99.669 44.895 105.697C45.178 106.28 45.548 106.811 46.009 107.247C47.503 108.849 49.726 109.785 52.787 109.462C59.277 108.8 62.881 102.755 61.676 96.6Z" fill="white"/>
<path d="M77.1562 62.292C77.1332 62.275 77.1082 62.275 77.0852 62.261C74.5562 61.565 72.2122 62.615 70.4592 64.473L70.2902 64.651C68.3572 66.688 67.2032 70.145 69.3282 72.456C69.3502 72.489 69.3762 72.504 69.3992 72.538C70.5642 73.797 72.8892 73.604 74.2732 72.892C76.9462 71.536 78.6922 69.338 79.2492 66.38C79.5322 64.895 78.7882 62.729 77.1562 62.292Z" fill="white"/>
<path d="M97.122 99.202C96.226 96.794 93.606 95.581 91.216 96.422C88.791 97.296 86.611 100.172 87.159 102.854C87.264 103.386 87.482 103.968 87.79 104.453C88.098 105.454 88.808 106.345 89.713 106.877C91.369 107.847 93.357 107.233 94.755 106.102C96.758 104.469 98.059 101.754 97.122 99.202Z" fill="white"/>
<path d="M132.244 46.182C128.317 44.08 121.571 47.07 118.848 49.899C117.83 50.965 117.03 52.112 116.399 53.308C110.89 58.479 111.858 67.998 117.564 72.522C124.666 78.162 134.184 74.849 138.199 67.351C142.295 59.74 139.993 50.335 132.244 46.182Z" fill="white"/>
<path d="M99.699 27.695C99.642 27.68 99.595 27.647 99.547 27.631C98.65 27.243 97.559 27.648 96.823 28.182C95.9 28.844 94.786 30.347 95.126 31.574C95.143 31.639 95.151 31.687 95.174 31.736C95.36 32.414 95.595 32.948 96.29 33.24C97.228 33.611 98.31 33.223 99.077 32.674C100.458 31.67 101.945 28.665 99.699 27.695Z" fill="white"/>
<path d="M84.542 10.518C79.451 11.649 75.977 16.965 76.438 22.023C76.584 23.576 77.569 25.239 78.723 26.241C79.363 26.807 80.081 27.146 80.826 27.341C81.069 27.517 81.309 27.68 81.578 27.825C83.403 28.827 85.689 27.793 87.265 26.807C90.643 24.707 92.663 20.764 92.493 16.837C92.321 12.715 88.591 9.62901 84.542 10.518Z" fill="white"/>
<path d="M156.872 85.935C156.799 85.596 156.661 85.273 156.484 84.981C156.46 84.933 156.443 84.9 156.427 84.852C155.522 82.832 153.187 82.606 151.353 83.382C148.614 84.546 146.861 87.793 147.2 90.701C147.313 91.688 148.066 93.044 149.133 93.27C150.012 93.481 150.326 93.53 150.918 93.513C151.838 94.208 153.011 94.336 154.214 93.755C156.056 92.867 157.268 90.862 157.373 88.828C157.421 87.776 157.212 86.856 156.872 85.935Z" fill="white"/>
<path d="M131.849 91.04C131.557 90.523 130.937 90.636 130.507 90.944C130.485 90.944 130.458 90.961 130.419 90.975C129.692 91.235 129.005 92.285 129.384 93.043C129.788 93.868 130.928 93.447 131.389 92.915C131.839 92.398 132.212 91.703 131.849 91.04Z" fill="white"/>
<path d="M70.0791 134.801C70.0791 134.801 65.7161 134.98 63.5741 140.199C61.4321 145.418 49.5481 187.4 57.5141 202.655C65.4891 217.911 81.753 218.686 95.804 214.42C109.855 210.153 99.5211 126.608 70.0791 134.801Z" fill="url(#paint0_radial_151_417)"/>
<defs>
<radialGradient id="paint0_radial_151_417" cx="0" cy="0" r="1" gradientUnits="userSpaceOnUse" gradientTransform="translate(33.8917 184.82) scale(76.6148 76.6148)">
<stop offset="0.0022" stop-color="white"/>
<stop offset="0.9102" stop-color="white"/>
<stop offset="1" stop-color="white"/>
</radialGradient>
</defs>
</svg>
