<svg width="173" height="224" viewBox="0 0 173 224" fill="none" xmlns="http://www.w3.org/2000/svg">
<path d="M105.051 94.102C102.869 83.662 99.9614 73.645 96.1314 64.772C91.8904 67.633 87.5184 70.219 82.9934 72.417C79.5674 74.097 76.1014 75.469 72.5944 76.634C72.6274 85.845 35.6144 199.415 59.2554 215.883C74.9464 226.821 110.61 227.37 120.119 204.003C126.615 188.023 112.728 130.932 105.051 94.102Z" fill="#FDD69C"/>
<path d="M87.421 125.697C95.443 126.083 103.646 125.744 111.37 123.695C109.155 113.217 106.925 103.072 105.051 94.102C102.869 83.662 99.961 73.645 96.131 64.772C91.89 67.633 87.518 70.219 82.993 72.417C79.567 74.097 76.101 75.469 72.594 76.634C72.611 80.109 67.335 98.482 62.042 120.864C69.677 124.771 79.098 125.291 87.421 125.697Z" fill="#DFA984"/>
<path d="M171.709 92.889C177.89 81.319 158.11 62.719 149.4 54.704C136.644 42.989 131.099 26.797 120.086 13.659C113.729 6.08 105.333 0.716006 95.1931 0.117006C73.0471 -1.19099 60.5802 19.153 48.4032 34.101C38.7492 45.945 27.8822 56.82 16.6342 67.147C11.8342 71.559 4.24715 78.781 0.950151 86.071C0.432151 90.498 3.37515 94.926 6.65515 98.029C18.8062 109.487 37.2362 112.006 53.6052 113.753C73.4182 115.886 100.016 116.451 119.641 113.351C135.544 110.84 163.411 108.405 171.709 92.889Z" fill="#8C4895"/>
<path d="M25.1091 72.383C22.5241 71.058 18.7671 72.626 16.5941 74.063C14.2001 75.647 12.3921 77.715 10.7361 80.026C9.20913 82.142 8.11113 86.054 9.50813 88.509C11.0181 91.177 13.4261 91.984 16.3671 91.679C17.2071 91.58 18.0471 91.305 18.8711 90.901C21.6091 90.078 24.2611 88.106 25.7311 86.297C29.0931 82.192 30.8051 75.29 25.1091 72.383Z" fill="#C98DBE"/>
<path d="M47.702 62.865C47.119 61.782 45.835 61.669 44.792 62.073C43.37 62.621 42.426 64.511 43.41 65.79C43.693 66.161 44.17 66.226 44.646 66.144C45.034 66.243 45.469 66.226 45.842 66.03C46.828 65.564 48.348 64.094 47.702 62.865Z" fill="#C98DBE"/>
<path d="M64.458 93.552C63.765 90.012 61.283 87.767 58.398 87.056C57.178 86.347 55.764 86.103 54.349 86.377C47.636 85.634 44.307 96.624 47.676 102.649C47.959 103.232 48.33 103.764 48.79 104.202C50.286 105.802 52.5079 106.738 55.5679 106.416C62.0509 105.752 65.654 99.709 64.458 93.552Z" fill="#C98DBE"/>
<path d="M79.9381 59.229C79.9161 59.229 79.8901 59.212 79.8601 59.212C77.3391 58.518 74.9871 59.569 73.2341 61.425L73.0731 61.603C71.1401 63.657 69.9861 67.097 72.1021 69.409C72.1261 69.443 72.1591 69.456 72.1751 69.49C73.3461 70.75 75.6721 70.556 77.0471 69.862C79.7291 68.472 81.4741 66.291 82.0311 63.349C82.3131 61.847 81.5711 59.681 79.9381 59.229Z" fill="#C98DBE"/>
<path d="M99.896 96.154C99.007 93.746 96.389 92.533 93.998 93.39C91.573 94.247 89.392 97.123 89.941 99.805C90.054 100.337 90.257 100.92 90.572 101.403C90.879 102.407 91.582 103.296 92.496 103.828C94.142 104.797 96.139 104.183 97.536 103.053C99.54 101.438 100.841 98.708 99.896 96.154Z" fill="#C98DBE"/>
<path d="M126.511 47.822C122.955 45.914 116.848 48.629 114.392 51.182C113.461 52.151 112.743 53.184 112.177 54.267C107.184 58.939 108.073 67.55 113.229 71.655C119.652 76.746 128.257 73.756 131.892 66.985C135.592 60.085 133.516 51.57 126.511 47.822Z" fill="#C98DBE"/>
<path d="M102.473 24.648C102.425 24.632 102.377 24.599 102.328 24.584C101.432 24.195 100.34 24.599 99.6043 25.132C98.6843 25.811 97.5613 27.297 97.9083 28.541C97.9243 28.589 97.9403 28.638 97.9493 28.687C98.1343 29.366 98.3773 29.899 99.0723 30.191C100.009 30.562 101.084 30.174 101.85 29.624C103.233 28.624 104.728 25.617 102.473 24.648Z" fill="#C98DBE"/>
<path d="M87.3242 7.47C82.2252 8.601 78.7522 13.919 79.2122 18.975C79.3572 20.544 80.3522 22.191 81.4992 23.209C82.1362 23.759 82.8562 24.098 83.6062 24.292C83.8412 24.472 84.0922 24.632 84.3512 24.777C86.1752 25.795 88.4712 24.745 90.0392 23.759C93.4242 21.643 95.4432 17.716 95.2742 13.789C95.1042 9.668 91.3642 6.581 87.3242 7.47Z" fill="#C98DBE"/>
<path d="M159.654 82.887C159.573 82.547 159.451 82.225 159.258 81.933C159.241 81.885 159.225 81.854 159.201 81.806C158.297 79.784 155.969 79.559 154.136 80.335C151.388 81.497 149.644 84.745 149.974 87.653C150.088 88.641 150.84 89.999 151.914 90.239C152.795 90.435 153.109 90.482 153.699 90.466C154.619 91.161 155.792 91.292 156.987 90.709C158.838 89.82 160.05 87.816 160.146 85.781C160.203 84.728 159.993 83.809 159.654 82.887Z" fill="#C98DBE"/>
<path d="M134.623 87.993C134.333 87.46 133.718 87.591 133.29 87.896C133.266 87.896 133.241 87.913 133.201 87.928C132.473 88.188 131.787 89.238 132.158 89.998C132.57 90.838 133.71 90.401 134.171 89.868C134.615 89.351 134.994 88.655 134.623 87.993Z" fill="#C98DBE"/>
<path d="M70.9622 134.614C70.9622 134.614 66.6003 134.775 64.4583 140.012C62.3093 145.23 50.4243 187.213 58.3983 202.453C66.3653 217.706 82.6292 218.499 96.6792 214.233C110.73 209.968 100.404 126.423 70.9622 134.614Z" fill="url(#paint0_radial_151_434)"/>
<defs>
<radialGradient id="paint0_radial_151_434" cx="0" cy="0" r="1" gradientUnits="userSpaceOnUse" gradientTransform="translate(34.7726 184.631) scale(76.6105 76.6105)">
<stop offset="0.0022" stop-color="white"/>
<stop offset="0.9102" stop-color="white"/>
<stop offset="1" stop-color="white"/>
</radialGradient>
</defs>
</svg>
