<svg width="109" height="120" viewBox="0 0 109 120" fill="none" xmlns="http://www.w3.org/2000/svg">
<path d="M54.559 31.333C46.014 31.333 39.062 24.382 39.062 15.837C39.062 7.29197 46.014 0.339966 54.559 0.339966C63.105 0.339966 70.056 7.29097 70.056 15.837C70.056 24.382 63.104 31.333 54.559 31.333ZM54.559 2.75697C47.346 2.75697 41.478 8.62397 41.478 15.837C41.478 23.05 47.346 28.917 54.559 28.917C61.772 28.917 67.64 23.05 67.64 15.837C67.64 8.62397 61.771 2.75697 54.559 2.75697Z" fill="#939598"/>
<path d="M66.3211 19.6949C62.8861 19.1039 56.8921 17.6709 56.8921 17.6709L54.8221 16.4459C54.7201 16.1699 54.5931 15.8239 54.4761 15.5079L57.4901 15.5609C57.4901 15.5609 61.5061 16.8779 64.7241 18.0679L66.3211 19.6949Z" fill="#D1D3D4"/>
<path d="M42.7822 12.02C46.2172 12.61 52.2122 14.043 52.2122 14.043L54.2812 15.268C54.3842 15.544 54.5102 15.89 54.6272 16.206L51.6142 16.154C51.6142 16.154 47.5972 14.836 44.3802 13.646L42.7822 12.02Z" fill="#D1D3D4"/>
<path d="M53.8443 16.4469C54.1813 16.7839 54.7273 16.7839 55.0643 16.4469C55.4013 16.1099 55.4013 15.5639 55.0643 15.2269C54.7273 14.8899 54.1793 14.8899 53.8443 15.2269C53.5063 15.5629 53.5063 16.1099 53.8443 16.4469Z" fill="#F1F2F2"/>
<path d="M54.0832 15.9319C54.3012 16.1489 54.6521 16.1489 54.8701 15.9319C55.0881 15.7139 55.0871 15.3629 54.8701 15.1449C54.6511 14.9279 54.3012 14.9269 54.0832 15.1449C53.8662 15.3609 53.8662 15.7129 54.0832 15.9319Z" fill="white"/>
<path d="M57.9539 5.84598C58.0299 5.85898 58.1389 5.87998 58.2639 5.91798C58.3879 5.95298 58.5339 5.99398 58.6849 6.03598C58.8359 6.08098 58.9909 6.14098 59.1419 6.19398C59.4489 6.29398 59.7179 6.42698 59.8899 6.48898C60.0549 6.55498 60.1139 6.56998 59.9709 6.48898C59.4089 6.15298 58.7049 5.81698 57.8089 5.54598C56.9149 5.28098 55.8229 5.07498 54.5329 5.11898C53.8859 5.13198 53.1949 5.21398 52.4669 5.38098C51.7389 5.54798 50.9709 5.78998 50.1989 6.16898C48.6599 6.91098 47.0459 8.13198 45.8259 9.98598L45.5959 10.331C45.5169 10.444 45.4609 10.571 45.3939 10.69C45.2669 10.934 45.1319 11.172 45.0139 11.415C44.9089 11.667 44.8069 11.918 44.7039 12.165L44.6279 12.351C44.6069 12.415 44.5889 12.478 44.5699 12.543C44.5299 12.671 44.4909 12.797 44.4549 12.925C44.3769 13.178 44.2979 13.43 44.2579 13.689C44.2079 13.945 44.1579 14.2 44.1099 14.453C44.0649 14.966 43.9879 15.468 44.0089 15.967C44.0109 16.091 44.0109 16.216 44.0109 16.339C44.0089 16.463 44.0109 16.585 44.0259 16.706C44.0499 16.95 44.0739 17.191 44.0979 17.429L44.1159 17.607L44.1489 17.782C44.1719 17.899 44.1949 18.013 44.2169 18.128C44.2399 18.244 44.2629 18.358 44.2839 18.471L44.3189 18.642L44.3699 18.807C44.5049 19.245 44.6149 19.68 44.7999 20.078C44.8829 20.28 44.9609 20.479 45.0479 20.674C45.1499 20.86 45.2469 21.047 45.3449 21.228C46.1369 22.681 47.1739 23.74 48.1109 24.478C48.3389 24.672 48.5809 24.824 48.8029 24.972C48.9129 25.045 49.0229 25.116 49.1289 25.185C49.2359 25.248 49.3449 25.303 49.4459 25.359C49.6539 25.467 49.8409 25.577 50.0219 25.656C50.2059 25.731 50.3739 25.801 50.5219 25.863C50.6709 25.923 50.6049 25.879 50.4209 25.78C50.2359 25.68 49.9359 25.53 49.6399 25.331C49.4899 25.234 49.3319 25.139 49.1889 25.041C49.0499 24.935 48.9189 24.834 48.8049 24.748C48.6919 24.659 48.5969 24.585 48.5299 24.531C48.4659 24.475 48.4319 24.438 48.4359 24.434C48.4459 24.44 48.7909 24.67 49.3109 25.019C49.8529 25.332 50.5779 25.738 51.3459 25.991C51.4419 26.025 51.5349 26.058 51.6279 26.095C51.7249 26.12 51.8189 26.148 51.9129 26.175C52.1009 26.227 52.2839 26.278 52.4599 26.326C52.8189 26.391 53.1429 26.467 53.4119 26.498C53.9509 26.555 54.2509 26.581 54.0939 26.551C53.4729 26.445 52.3299 26.259 50.9719 25.657C50.8009 25.584 50.6369 25.489 50.4609 25.403C50.2869 25.316 50.1069 25.227 49.9359 25.114C49.7609 25.007 49.5839 24.896 49.4009 24.784C49.2289 24.657 49.0529 24.528 48.8749 24.397C48.6889 24.272 48.5269 24.113 48.3529 23.964C48.2659 23.889 48.1789 23.812 48.0919 23.735C48.0009 23.66 47.9269 23.57 47.8429 23.486C47.6789 23.314 47.5139 23.14 47.3449 22.965C47.1879 22.781 47.0429 22.581 46.8869 22.386C46.2939 21.59 45.7579 20.685 45.4149 19.678C45.0579 18.679 44.8409 17.605 44.7929 16.516C44.7349 14.341 45.3529 12.134 46.5179 10.445C47.6399 8.72398 49.2469 7.44398 50.9339 6.69998C52.6279 5.94898 54.3869 5.71498 55.9279 5.83198C56.7009 5.88798 57.4209 6.02398 58.0759 6.20598C58.7309 6.39098 59.3139 6.63298 59.8329 6.87498C60.8609 7.37998 61.6009 7.93298 62.0989 8.32398C62.3399 8.53398 61.4769 7.62098 60.3269 6.94898C59.7629 6.59398 59.1349 6.32198 58.6539 6.12798C58.4099 6.03798 58.2039 5.96398 58.0609 5.91298C57.9159 5.86798 57.8309 5.83898 57.8319 5.83298C57.8329 5.82698 57.8769 5.83298 57.9539 5.84598Z" fill="#E6E7E8"/>
<path d="M46.3648 13.291C46.3978 13.153 46.4228 12.99 46.4718 12.828C46.5238 12.664 46.5788 12.493 46.6328 12.327C46.7258 11.989 46.8768 11.699 46.9458 11.514C47.0178 11.331 47.0378 11.268 46.9488 11.425C46.8618 11.582 46.7708 11.744 46.6788 11.915C46.5858 12.087 46.5178 12.279 46.4308 12.475C46.3468 12.672 46.2588 12.877 46.2008 13.104C46.1348 13.328 46.0548 13.56 45.9968 13.807C45.7628 14.797 45.6578 16.01 45.8688 17.403C45.9048 17.575 45.9418 17.751 45.9798 17.929C46.0188 18.107 46.0458 18.294 46.1108 18.472C46.2278 18.831 46.3298 19.213 46.5058 19.582C46.8038 20.343 47.2738 21.091 47.8448 21.831C47.9958 22.01 48.1528 22.19 48.3118 22.373C48.3868 22.468 48.4778 22.548 48.5678 22.635C48.6578 22.718 48.7468 22.804 48.8378 22.89C48.9298 22.974 49.0218 23.062 49.1138 23.149C49.2138 23.228 49.3148 23.306 49.4178 23.385C49.5208 23.463 49.6248 23.544 49.7278 23.624L49.8838 23.743C49.9388 23.78 49.9968 23.813 50.0518 23.848C50.9358 24.45 51.9938 24.916 53.1678 25.191C54.3498 25.465 55.5548 25.51 56.6978 25.348C57.8448 25.191 58.9258 24.828 59.8878 24.322C60.8578 23.827 61.6718 23.143 62.3638 22.425C63.0638 21.709 63.5848 20.893 63.9838 20.092C64.0798 19.887 64.1758 19.689 64.2638 19.49C64.3348 19.283 64.4088 19.081 64.4768 18.883C64.5108 18.783 64.5508 18.687 64.5768 18.586C64.6018 18.486 64.6278 18.386 64.6508 18.288C64.6968 18.09 64.7478 17.897 64.7898 17.706C64.9138 16.932 64.9788 16.209 64.9368 15.558C64.9258 15.395 64.9158 15.236 64.9078 15.081C64.9028 14.927 64.8678 14.78 64.8478 14.636C64.7988 14.348 64.7708 14.076 64.6948 13.832C64.6278 13.586 64.5718 13.357 64.5068 13.152C64.4298 12.951 64.3588 12.767 64.2928 12.604C64.2288 12.44 64.2468 12.526 64.3068 12.745C64.3398 12.852 64.3808 12.995 64.4278 13.156C64.4698 13.319 64.4988 13.506 64.5378 13.695C64.6288 14.073 64.6528 14.482 64.6818 14.792C64.6888 14.87 64.6968 14.941 64.6998 15.004C64.6988 15.068 64.6968 15.126 64.6968 15.172C64.6938 15.264 64.6898 15.318 64.6828 15.318C64.6808 15.318 64.6768 15.289 64.6708 15.235C64.6678 15.181 64.6638 15.102 64.6558 15.003C64.6278 14.804 64.5868 14.522 64.5358 14.184C64.3938 13.522 64.1798 12.643 63.7798 11.862C63.7338 11.762 63.6868 11.664 63.6428 11.566C63.5878 11.472 63.5338 11.379 63.4798 11.288C63.3728 11.106 63.2718 10.925 63.1648 10.759C63.0498 10.598 62.9378 10.447 62.8348 10.304C62.7298 10.161 62.6388 10.026 62.5348 9.92096C62.1388 9.48496 61.9178 9.24596 62.0228 9.38296C62.4528 9.91396 63.2508 10.892 63.8208 12.396C64.0838 13.153 64.3088 14.022 64.3748 14.983C64.4318 15.942 64.3458 16.982 64.0588 18.017C63.7738 19.053 63.2858 20.084 62.5988 21.002C61.9138 21.92 61.0358 22.731 60.0278 23.337C59.0238 23.945 57.8928 24.346 56.7438 24.518C55.5968 24.691 54.4328 24.634 53.3568 24.382C52.2798 24.13 51.2688 23.689 50.3928 23.096C49.5168 22.498 48.7758 21.762 48.1788 20.963C48.1058 20.862 48.0338 20.761 47.9608 20.66L47.8528 20.511L47.7608 20.352C47.6378 20.14 47.5178 19.929 47.3968 19.721C47.2988 19.501 47.2008 19.284 47.1028 19.069C47.0488 18.964 47.0128 18.852 46.9748 18.741C46.9378 18.631 46.8998 18.519 46.8628 18.411C46.8288 18.301 46.7848 18.194 46.7558 18.083C46.7308 17.973 46.7038 17.863 46.6788 17.753C46.6308 17.531 46.5588 17.318 46.5388 17.099C46.5088 16.879 46.4778 16.663 46.4488 16.452C46.4328 16.237 46.4278 16.025 46.4188 15.816C46.3988 15.607 46.4138 15.401 46.4258 15.198C46.4398 14.995 46.4338 14.794 46.4648 14.599C46.5238 14.209 46.5598 13.829 46.6618 13.475C46.7068 13.296 46.7428 13.118 46.7918 12.949C46.8498 12.783 46.9068 12.618 46.9638 12.458C47.0588 12.129 47.2158 11.844 47.3378 11.56C47.8778 10.44 48.5268 9.67495 48.9728 9.15595C49.0828 9.02495 48.9058 9.19896 48.5728 9.53696C48.4938 9.62396 48.3918 9.71296 48.3028 9.82196C48.2138 9.93396 48.1178 10.055 48.0178 10.182C47.9218 10.31 47.8058 10.436 47.7118 10.583C47.6188 10.729 47.5228 10.88 47.4278 11.032L47.2818 11.26C47.2378 11.338 47.2008 11.42 47.1598 11.5C47.0778 11.66 46.9988 11.818 46.9208 11.974C46.7728 12.286 46.6718 12.596 46.5638 12.857C46.4728 13.124 46.4178 13.354 46.3678 13.513C46.3188 13.671 46.2888 13.763 46.2828 13.762C46.2708 13.759 46.3068 13.567 46.3648 13.291Z" fill="#E6E7E8"/>
<path d="M58.718 21.5C58.627 21.557 58.526 21.631 58.412 21.692C58.297 21.753 58.178 21.816 58.06 21.876C57.831 22.008 57.5911 22.084 57.4591 22.148C57.3221 22.206 57.28 22.23 57.409 22.193C57.539 22.156 57.674 22.117 57.816 22.074C57.956 22.03 58.096 21.963 58.247 21.904C58.396 21.843 58.554 21.779 58.706 21.69C58.86 21.603 59.026 21.521 59.189 21.419C59.842 21.012 60.543 20.414 61.168 19.552C61.24 19.44 61.315 19.325 61.388 19.21C61.463 19.092 61.547 18.978 61.608 18.847C61.735 18.592 61.884 18.332 61.985 18.04C62.23 17.472 62.373 16.818 62.462 16.118C62.475 15.941 62.486 15.761 62.498 15.578C62.508 15.486 62.502 15.394 62.499 15.302C62.495 15.209 62.4911 15.115 62.4891 15.021C62.4861 14.927 62.481 14.83 62.477 14.734C62.464 14.639 62.453 14.543 62.439 14.446C62.426 14.35 62.4121 14.252 62.3981 14.153L62.38 14.006C62.369 13.957 62.356 13.907 62.345 13.859C62.19 13.067 61.8671 12.253 61.3811 11.481C60.8911 10.704 60.266 10.041 59.565 9.51897C58.865 8.99397 58.088 8.61497 57.303 8.37697C56.517 8.12697 55.715 8.06197 54.961 8.08097C54.202 8.09397 53.489 8.25697 52.848 8.47597C52.688 8.53597 52.5301 8.59197 52.3771 8.65197C52.2271 8.72397 52.083 8.79497 51.939 8.86497C51.868 8.90097 51.794 8.93097 51.727 8.97197C51.66 9.01197 51.593 9.05297 51.529 9.09397C51.397 9.17597 51.2681 9.25297 51.1441 9.33297C50.6651 9.68297 50.2471 10.038 49.9241 10.412C49.8421 10.505 49.763 10.596 49.685 10.683C49.606 10.768 49.5471 10.867 49.4801 10.954C49.3541 11.135 49.225 11.296 49.137 11.469C49.04 11.636 48.949 11.788 48.874 11.935C48.809 12.084 48.752 12.22 48.699 12.342C48.645 12.464 48.6821 12.409 48.7651 12.259C48.8061 12.184 48.8601 12.085 48.9201 11.974C48.9841 11.864 49.0671 11.747 49.1481 11.624C49.3001 11.373 49.5051 11.14 49.6531 10.957C49.6901 10.911 49.725 10.87 49.755 10.833C49.79 10.799 49.821 10.77 49.847 10.745C49.898 10.697 49.9281 10.67 49.9331 10.673C49.9331 10.675 49.92 10.692 49.895 10.723C49.869 10.754 49.83 10.799 49.779 10.857C49.689 10.979 49.561 11.152 49.409 11.36C49.133 11.792 48.781 12.379 48.582 13.014C48.554 13.091 48.525 13.169 48.498 13.244C48.477 13.323 48.458 13.403 48.438 13.48C48.398 13.635 48.3561 13.785 48.3251 13.932C48.3031 14.08 48.283 14.222 48.261 14.353C48.243 14.486 48.219 14.607 48.219 14.72C48.199 15.164 48.192 15.411 48.208 15.281C48.259 14.766 48.3501 13.816 48.8421 12.702C49.1031 12.157 49.444 11.568 49.919 11.015C50.399 10.47 50.9981 9.95597 51.7041 9.55097C52.4071 9.14497 53.2201 8.84997 54.0751 8.72097C54.9321 8.59097 55.836 8.62197 56.701 8.82997C57.565 9.03697 58.389 9.42197 59.097 9.93997C59.809 10.458 60.404 11.107 60.848 11.814C61.295 12.523 61.605 13.297 61.761 14.084C61.914 14.871 61.922 15.661 61.818 16.407C61.803 16.502 61.789 16.594 61.775 16.687L61.753 16.825L61.718 16.96C61.671 17.139 61.625 17.317 61.578 17.493C61.514 17.664 61.4531 17.833 61.3901 18C61.3631 18.085 61.324 18.167 61.285 18.245C61.246 18.324 61.2091 18.404 61.1701 18.481C61.1311 18.559 61.098 18.641 61.054 18.716C61.009 18.79 60.965 18.864 60.921 18.936C60.827 19.079 60.7531 19.233 60.6481 19.362C60.5471 19.496 60.45 19.628 60.352 19.759C60.247 19.881 60.136 19.998 60.03 20.118C59.929 20.24 59.812 20.343 59.698 20.446C59.584 20.547 59.478 20.659 59.359 20.748C59.121 20.924 58.898 21.111 58.655 21.247C58.536 21.32 58.422 21.396 58.305 21.46C58.186 21.52 58.068 21.578 57.952 21.635C57.727 21.76 57.4891 21.83 57.2731 21.918C56.3861 22.233 55.63 22.3 55.115 22.342C54.985 22.355 55.175 22.355 55.533 22.35C55.622 22.348 55.723 22.352 55.831 22.34C55.938 22.328 56.052 22.314 56.175 22.298C56.295 22.28 56.424 22.274 56.552 22.244C56.68 22.214 56.813 22.184 56.945 22.153L57.145 22.108C57.21 22.089 57.2741 22.066 57.3381 22.045C57.4661 22.002 57.593 21.959 57.718 21.917C57.965 21.828 58.1851 21.715 58.3811 21.631C58.5701 21.537 58.7231 21.443 58.8341 21.383C58.9451 21.323 59.009 21.29 59.013 21.293C59.018 21.299 58.895 21.381 58.718 21.5Z" fill="#E6E7E8"/>
<path d="M29.7299 45.6689C25.4569 53.0699 15.9589 55.6149 8.55989 51.3419C1.15989 47.0699 -1.38411 37.5729 2.88789 30.1729C7.15989 22.7729 16.6559 20.2279 24.0559 24.5009C31.4569 28.7719 34.0029 38.2689 29.7299 45.6689ZM4.98088 31.3799C1.37488 37.6269 3.5219 45.6429 9.7679 49.2489C16.0149 52.8549 24.0299 50.7069 27.6359 44.4599C31.2409 38.2139 29.0949 30.1989 22.8489 26.5929C16.6029 22.9869 8.58688 25.1349 4.98088 31.3799Z" fill="#939598"/>
<path d="M25.5309 29.663C23.3019 32.342 19.0639 36.816 19.0639 36.816L16.9669 37.997C16.6779 37.947 16.3129 37.885 15.9819 37.827L17.5359 35.244C17.5359 35.244 20.6839 32.424 23.3229 30.232L25.5309 29.663Z" fill="#D1D3D4"/>
<path d="M7.11475 46.21C9.34375 43.531 13.5818 39.056 13.5818 39.056L15.6768 37.876C15.9678 37.926 16.3317 37.988 16.6617 38.046L15.1097 40.629C15.1097 40.629 11.9598 43.449 9.32077 45.64L7.11475 46.21Z" fill="#D1D3D4"/>
<path d="M16.4789 38.845C16.9399 38.722 17.2118 38.249 17.0898 37.789C16.9658 37.329 16.4919 37.056 16.0309 37.179C15.5709 37.302 15.2968 37.777 15.4218 38.236C15.5458 38.696 16.0199 38.969 16.4789 38.845Z" fill="#F1F2F2"/>
<path d="M16.1526 38.38C16.4486 38.3 16.6256 37.995 16.5456 37.698C16.4666 37.401 16.1616 37.227 15.8646 37.305C15.5666 37.385 15.3906 37.689 15.4696 37.986C15.5516 38.282 15.8546 38.458 16.1526 38.38Z" fill="white"/>
<path d="M9.35409 29.9849C9.40209 29.9259 9.47609 29.8419 9.57009 29.7529C9.66409 29.6629 9.77109 29.5569 9.88509 29.4469C9.99809 29.3379 10.1281 29.2349 10.2491 29.1299C10.4881 28.9149 10.7381 28.7479 10.8781 28.6299C11.0201 28.5199 11.0611 28.4769 10.9191 28.5589C10.3481 28.8769 9.70408 29.3189 9.02208 29.9599C8.34508 30.6019 7.62108 31.4449 7.01308 32.5849C6.70208 33.1499 6.42508 33.7909 6.20608 34.5049C5.98808 35.2189 5.81209 36.0059 5.75609 36.8629C5.62909 38.5669 5.87909 40.5749 6.87609 42.5579L7.0581 42.9309C7.1181 43.0559 7.19809 43.1679 7.26809 43.2859C7.41609 43.5179 7.55608 43.7529 7.70708 43.9769C7.87308 44.1929 8.04008 44.4079 8.20208 44.6199L8.32509 44.7789C8.37009 44.8289 8.41609 44.8769 8.46309 44.9249C8.55409 45.0219 8.64407 45.1189 8.73607 45.2149C8.91707 45.4099 9.09408 45.6049 9.29708 45.7679C9.49508 45.9379 9.69107 46.1099 9.88607 46.2789C10.3081 46.5729 10.7041 46.8909 11.1471 47.1229C11.2541 47.1839 11.3641 47.2459 11.4691 47.3079C11.5761 47.3709 11.6821 47.4309 11.7951 47.4769C12.0181 47.5789 12.2371 47.6779 12.4571 47.7759L12.6201 47.8499L12.7871 47.9089C12.9001 47.9469 13.0121 47.9839 13.1221 48.0219C13.2351 48.0609 13.3451 48.0969 13.4541 48.1349L13.6191 48.1909L13.7861 48.2289C14.2331 48.3329 14.6661 48.4529 15.1021 48.4929C15.3191 48.5209 15.5301 48.5529 15.7421 48.5759C15.9541 48.5809 16.1651 48.5889 16.3701 48.5969C18.0241 48.6379 19.4591 48.2679 20.5671 47.8259C20.8491 47.7259 21.1021 47.5929 21.3401 47.4729C21.4591 47.4129 21.5751 47.3539 21.6871 47.2969C21.7981 47.2349 21.8981 47.1689 21.9981 47.1079C22.1941 46.9819 22.3831 46.8769 22.5421 46.7579C22.7001 46.6359 22.8451 46.5259 22.9731 46.4279C23.0981 46.3299 23.0291 46.3649 22.8501 46.4739C22.6711 46.5829 22.3921 46.7689 22.0721 46.9259C21.9121 47.0089 21.7521 47.0969 21.5951 47.1719C21.4341 47.2389 21.2811 47.3019 21.1481 47.3589C21.0161 47.4119 20.9041 47.4579 20.8241 47.4889C20.7441 47.5169 20.6941 47.5269 20.6921 47.5219C20.7031 47.5159 21.0731 47.3319 21.6351 47.0569C22.1781 46.7439 22.8921 46.3189 23.4961 45.7799C23.5731 45.7149 23.6481 45.6489 23.7251 45.5879C23.7961 45.5169 23.8671 45.4489 23.9371 45.3809C24.0771 45.2439 24.2111 45.1109 24.3411 44.9839C24.5761 44.7049 24.8061 44.4629 24.9661 44.2449C25.2841 43.8059 25.4581 43.5599 25.3531 43.6799C24.9511 44.1649 24.2181 45.0629 23.0171 45.9369C22.8701 46.0479 22.7061 46.1439 22.5411 46.2529C22.3801 46.3589 22.2131 46.4709 22.0291 46.5629C21.8471 46.6619 21.6641 46.7599 21.4751 46.8619C21.2791 46.9469 21.0791 47.0349 20.8781 47.1239C20.6751 47.2219 20.4581 47.2829 20.2411 47.3599C20.1321 47.3969 20.0221 47.4349 19.9121 47.4719C19.8021 47.5129 19.6861 47.5319 19.5711 47.5629C19.3411 47.6189 19.1061 47.6749 18.8711 47.7329C18.6351 47.7769 18.3881 47.8029 18.1421 47.8409C17.1571 47.9549 16.1051 47.9669 15.0611 47.7609C14.0181 47.5689 12.9791 47.2209 12.0121 46.7189C10.0981 45.6809 8.49608 44.0439 7.61608 42.1889C6.68608 40.3569 6.38308 38.3249 6.58208 36.4919C6.77608 34.6499 7.45307 33.0109 8.32607 31.7339C8.76107 31.0919 9.23907 30.5369 9.72307 30.0599C10.2111 29.5859 10.7121 29.2019 11.1811 28.8739C12.1321 28.2359 12.9821 27.8709 13.5691 27.6369C13.8721 27.5329 12.6491 27.8239 11.4931 28.4839C10.9021 28.7939 10.3521 29.2029 9.94408 29.5219C9.74508 29.6889 9.57709 29.8299 9.46209 29.9279C9.35009 30.0309 9.28207 30.0909 9.27907 30.0859C9.27707 30.0809 9.30509 30.0439 9.35409 29.9849Z" fill="#E6E7E8"/>
<path d="M10.008 43.744C9.905 43.645 9.77601 43.543 9.65901 43.418C9.54201 43.291 9.423 43.157 9.305 43.028C9.06 42.779 8.88301 42.502 8.75901 42.351C8.63701 42.198 8.591 42.15 8.684 42.304C8.776 42.457 8.86999 42.618 8.97199 42.783C9.07499 42.948 9.20702 43.104 9.33302 43.277C9.46202 43.448 9.595 43.628 9.762 43.792C9.923 43.96 10.085 44.146 10.269 44.319C11.009 45.017 12.008 45.714 13.32 46.227C13.486 46.283 13.658 46.337 13.831 46.394C14.006 46.448 14.181 46.519 14.367 46.552C14.738 46.629 15.118 46.733 15.525 46.765C16.334 46.888 17.215 46.855 18.142 46.73C18.372 46.688 18.607 46.643 18.845 46.597C18.963 46.579 19.078 46.54 19.198 46.506C19.315 46.47 19.434 46.435 19.555 46.4C19.673 46.363 19.795 46.328 19.917 46.291C20.035 46.244 20.152 46.195 20.272 46.147C20.391 46.096 20.512 46.046 20.634 45.996L20.816 45.921C20.876 45.892 20.932 45.859 20.991 45.829C21.955 45.364 22.888 44.68 23.712 43.801C24.541 42.915 25.182 41.893 25.613 40.823C26.05 39.751 26.276 38.634 26.318 37.547C26.375 36.46 26.19 35.413 25.913 34.454C25.644 33.49 25.197 32.632 24.703 31.884C24.574 31.7 24.45 31.516 24.322 31.341C24.178 31.176 24.04 31.012 23.902 30.853C23.833 30.774 23.769 30.691 23.694 30.619C23.621 30.547 23.546 30.475 23.472 30.406C23.324 30.267 23.182 30.126 23.037 29.995C22.429 29.5 21.835 29.083 21.25 28.793C21.104 28.721 20.961 28.649 20.823 28.58C20.686 28.507 20.542 28.464 20.407 28.41C20.134 28.308 19.884 28.198 19.635 28.14C19.387 28.077 19.161 28.01 18.951 27.964C18.738 27.93 18.544 27.9 18.369 27.874C18.195 27.848 18.279 27.874 18.498 27.933C18.608 27.959 18.752 27.995 18.916 28.035C19.077 28.08 19.254 28.149 19.437 28.209C19.809 28.32 20.176 28.503 20.459 28.632C20.528 28.665 20.595 28.695 20.65 28.723C20.707 28.755 20.754 28.786 20.795 28.809C20.874 28.858 20.917 28.888 20.915 28.893C20.914 28.895 20.887 28.885 20.838 28.863C20.789 28.838 20.719 28.802 20.63 28.76C20.442 28.685 20.177 28.579 19.86 28.454C19.217 28.245 18.349 27.992 17.471 27.948C17.362 27.938 17.253 27.928 17.146 27.918C17.039 27.919 16.93 27.919 16.825 27.92C16.614 27.921 16.407 27.919 16.21 27.927C16.013 27.946 15.825 27.968 15.651 27.986C15.474 28.006 15.311 28.016 15.169 28.054C14.594 28.179 14.275 28.252 14.448 28.228C15.122 28.121 16.369 27.92 17.956 28.179C18.742 28.329 19.609 28.569 20.475 28.992C21.332 29.423 22.189 30.017 22.944 30.783C23.699 31.548 24.347 32.486 24.799 33.54C25.251 34.592 25.515 35.757 25.535 36.934C25.559 38.108 25.341 39.288 24.916 40.37C24.492 41.449 23.859 42.429 23.104 43.234C22.348 44.041 21.461 44.695 20.508 45.158C19.553 45.618 18.544 45.891 17.554 46.009C17.43 46.021 17.307 46.033 17.183 46.047L17 46.065H16.816C16.571 46.066 16.329 46.065 16.087 46.065C15.849 46.04 15.612 46.017 15.377 45.995C15.258 45.988 15.144 45.964 15.028 45.941C14.916 45.918 14.799 45.895 14.686 45.873C14.575 45.848 14.46 45.832 14.347 45.803C14.242 45.77 14.131 45.738 14.024 45.705C13.809 45.635 13.588 45.592 13.388 45.498C13.182 45.415 12.981 45.333 12.784 45.252C12.589 45.158 12.403 45.058 12.217 44.961C12.027 44.873 11.856 44.758 11.686 44.646C11.517 44.533 11.34 44.438 11.186 44.312C10.878 44.066 10.568 43.845 10.312 43.579C10.179 43.451 10.043 43.331 9.921 43.204C9.806 43.07 9.692 42.939 9.58 42.809C9.346 42.562 9.17701 42.284 8.99101 42.037C8.29101 41.009 7.95402 40.064 7.72602 39.419C7.66602 39.257 7.729 39.498 7.856 39.955C7.891 40.067 7.92 40.199 7.968 40.331C8.022 40.464 8.07801 40.607 8.13801 40.758C8.20201 40.905 8.25202 41.069 8.33302 41.223C8.41202 41.377 8.49402 41.535 8.57902 41.694L8.70402 41.934C8.74902 42.012 8.80101 42.084 8.84901 42.16C8.94601 42.311 9.04502 42.458 9.13902 42.605C9.33602 42.888 9.55402 43.132 9.72602 43.356C9.91202 43.567 10.082 43.731 10.196 43.854C10.309 43.976 10.374 44.048 10.369 44.052C10.365 44.059 10.218 43.932 10.008 43.744Z" fill="#E6E7E8"/>
<path d="M23.2908 37.15C23.2958 37.257 23.3099 37.382 23.3059 37.511C23.3019 37.641 23.2949 37.776 23.2899 37.908C23.2899 38.173 23.2349 38.417 23.2259 38.565C23.2069 38.712 23.2069 38.762 23.2389 38.631C23.2719 38.499 23.3049 38.362 23.3409 38.217C23.3709 38.074 23.3839 37.92 23.4069 37.759C23.4289 37.599 23.4518 37.431 23.4508 37.254C23.4528 37.078 23.4649 36.893 23.4579 36.7C23.4329 35.93 23.2648 35.025 22.8308 34.052C22.7698 33.934 22.7088 33.813 22.6448 33.69C22.5808 33.568 22.5239 33.438 22.4409 33.32C22.2839 33.081 22.1329 32.823 21.9309 32.589C21.5609 32.093 21.0658 31.642 20.5028 31.216C20.3558 31.116 20.2068 31.016 20.0538 30.914C19.9808 30.86 19.8979 30.819 19.8159 30.775C19.7339 30.732 19.6498 30.688 19.5678 30.644C19.4848 30.599 19.3989 30.555 19.3139 30.51C19.2249 30.474 19.1359 30.435 19.0449 30.398C18.9549 30.361 18.8628 30.325 18.7698 30.287L18.6339 30.23C18.5859 30.214 18.5359 30.202 18.4879 30.187C17.7249 29.925 16.8578 29.797 15.9468 29.832C15.0298 29.868 14.1419 30.077 13.3399 30.424C12.5369 30.768 11.8179 31.251 11.2209 31.812C10.6119 32.368 10.1538 33.029 9.79185 33.693C9.42485 34.356 9.20885 35.055 9.07685 35.721C9.05085 35.888 9.01785 36.054 8.99485 36.216C8.98285 36.381 8.97285 36.542 8.96085 36.702C8.95585 36.781 8.94585 36.86 8.94685 36.938C8.94685 37.016 8.95086 37.094 8.95286 37.17C8.95986 37.325 8.96085 37.475 8.96885 37.623C9.03285 38.212 9.13185 38.753 9.29185 39.219C9.33285 39.336 9.37085 39.451 9.40785 39.562C9.44185 39.673 9.49784 39.774 9.54084 39.875C9.63484 40.074 9.70986 40.267 9.81486 40.43C9.91186 40.597 9.99786 40.752 10.0869 40.89C10.1839 41.02 10.2718 41.139 10.3518 41.245C10.4308 41.353 10.4019 41.293 10.3139 41.146C10.2689 41.072 10.2109 40.977 10.1429 40.868C10.0809 40.759 10.0228 40.628 9.95585 40.497C9.81385 40.239 9.71386 39.945 9.62986 39.726C9.60986 39.67 9.59186 39.62 9.57386 39.575C9.56086 39.528 9.55286 39.487 9.54286 39.452C9.52686 39.385 9.51887 39.345 9.52287 39.343C9.52587 39.343 9.53386 39.362 9.54786 39.401C9.56086 39.439 9.57884 39.496 9.60584 39.568C9.66584 39.708 9.75284 39.905 9.85584 40.141C10.0928 40.597 10.4239 41.193 10.8759 41.684C10.9289 41.747 10.9808 41.81 11.0328 41.872C11.0918 41.929 11.1509 41.985 11.2079 42.042C11.3219 42.154 11.4318 42.266 11.5418 42.366C11.6588 42.459 11.7719 42.548 11.8749 42.632C11.9819 42.715 12.0728 42.796 12.1708 42.852C12.5478 43.089 12.7569 43.221 12.6529 43.141C12.2319 42.84 11.4548 42.285 10.7358 41.302C10.3938 40.803 10.0549 40.213 9.81385 39.526C9.58085 38.838 9.43587 38.062 9.43687 37.248C9.43887 36.436 9.58785 35.585 9.90485 34.78C10.2209 33.972 10.6989 33.205 11.3119 32.561C11.9229 31.916 12.6669 31.396 13.4709 31.041C14.2759 30.684 15.1359 30.493 15.9699 30.461C16.8069 30.428 17.6318 30.548 18.3908 30.806C19.1488 31.066 19.8379 31.454 20.4309 31.918C20.5059 31.978 20.5779 32.038 20.6519 32.096L20.7608 32.183L20.8598 32.281C20.9908 32.411 21.1228 32.539 21.2528 32.668C21.3688 32.809 21.4838 32.947 21.5968 33.083C21.6588 33.151 21.7088 33.225 21.7568 33.297C21.8068 33.37 21.8568 33.443 21.9038 33.515C21.9518 33.587 22.0069 33.658 22.0489 33.734C22.0899 33.81 22.1319 33.884 22.1729 33.959C22.2499 34.111 22.3458 34.252 22.4038 34.409C22.4698 34.562 22.5359 34.713 22.5989 34.863C22.6529 35.015 22.6988 35.169 22.7488 35.321C22.8038 35.47 22.8339 35.622 22.8669 35.774C22.8959 35.924 22.9419 36.07 22.9589 36.217C22.9929 36.512 23.0439 36.8 23.0389 37.077C23.0429 37.217 23.0528 37.353 23.0498 37.487C23.0408 37.62 23.0318 37.751 23.0238 37.88C23.0198 38.137 22.9608 38.378 22.9298 38.609C22.7608 39.535 22.4399 40.222 22.2189 40.69C22.1639 40.809 22.2599 40.645 22.4359 40.331C22.4759 40.253 22.5308 40.168 22.5758 40.069C22.6178 39.969 22.6629 39.864 22.7119 39.75C22.7549 39.638 22.8149 39.523 22.8529 39.396C22.8909 39.271 22.9309 39.141 22.9699 39.011L23.0309 38.815C23.0489 38.75 23.0588 38.683 23.0718 38.616C23.0988 38.483 23.1259 38.351 23.1519 38.223C23.1989 37.965 23.2108 37.718 23.2358 37.506C23.2488 37.294 23.2439 37.115 23.2469 36.989C23.2529 36.864 23.2549 36.791 23.2599 36.79C23.2679 36.791 23.2778 36.937 23.2908 37.15Z" fill="#E6E7E8"/>
<path d="M29.7301 74.339C34.0021 81.74 31.4571 91.236 24.0561 95.509C16.6571 99.781 7.1611 97.237 2.8881 89.836C-1.3849 82.435 1.15909 72.94 8.55909 68.668C15.9601 64.395 25.4571 66.938 29.7301 74.339ZM4.98011 88.627C8.58611 94.874 16.6031 97.022 22.8491 93.416C29.0951 89.809 31.2421 81.794 27.6351 75.547C24.0301 69.302 16.0151 67.153 9.76912 70.759C3.52212 74.367 1.37611 82.382 4.98011 88.627Z" fill="#939598"/>
<path d="M13.7692 69.973C14.9742 73.243 16.7302 79.15 16.7302 79.15L16.7062 81.555C16.5172 81.781 16.2812 82.065 16.0662 82.324L14.6052 79.687C14.6052 79.687 13.7372 75.551 13.1582 72.169L13.7692 69.973Z" fill="#D1D3D4"/>
<path d="M18.8922 94.194C17.6852 90.925 15.9292 85.018 15.9292 85.018L15.9552 82.613C16.1432 82.386 16.3782 82.102 16.5932 81.844L18.0552 84.48C18.0552 84.48 18.9242 88.618 19.5012 91.999L18.8922 94.194Z" fill="#D1D3D4"/>
<path d="M17.195 82.402C17.318 81.942 17.046 81.468 16.586 81.345C16.125 81.222 15.652 81.495 15.528 81.956C15.405 82.416 15.678 82.891 16.137 83.012C16.6 83.136 17.071 82.863 17.195 82.402Z" fill="#F1F2F2"/>
<path d="M16.629 82.452C16.707 82.156 16.532 81.851 16.235 81.772C15.939 81.692 15.635 81.869 15.555 82.165C15.475 82.463 15.65 82.767 15.947 82.847C16.243 82.925 16.548 82.749 16.629 82.452Z" fill="white"/>
<path d="M5.96021 84.143C5.93221 84.072 5.89621 83.966 5.86621 83.839C5.83621 83.713 5.79722 83.567 5.75922 83.414C5.72022 83.261 5.6962 83.097 5.6662 82.939C5.6002 82.625 5.57922 82.325 5.54822 82.145C5.52322 81.968 5.50621 81.911 5.50721 82.075C5.49821 82.727 5.55822 83.506 5.77222 84.418C5.99022 85.326 6.3572 86.374 7.0412 87.471C7.3742 88.022 7.7922 88.582 8.3002 89.128C8.8102 89.674 9.40322 90.22 10.1172 90.698C11.5292 91.66 13.3932 92.447 15.6082 92.575L16.0222 92.604C16.1602 92.615 16.2972 92.602 16.4362 92.6C16.7102 92.588 16.9832 92.586 17.2532 92.567C17.5242 92.53 17.7942 92.494 18.0572 92.459L18.2572 92.432C18.3232 92.418 18.3872 92.402 18.4532 92.386C18.5822 92.356 18.7122 92.327 18.8392 92.295C19.0992 92.236 19.3572 92.179 19.6002 92.085C19.8472 91.999 20.0922 91.915 20.3372 91.831C20.8032 91.614 21.2762 91.428 21.6982 91.162C21.8042 91.098 21.9132 91.036 22.0192 90.975C22.1262 90.914 22.2322 90.852 22.3282 90.777C22.5282 90.634 22.7252 90.494 22.9192 90.353L23.0642 90.249L23.2002 90.134C23.2892 90.054 23.3772 89.976 23.4652 89.9C23.5552 89.822 23.6422 89.745 23.7292 89.67L23.8612 89.555L23.9782 89.428C24.2912 89.094 24.6112 88.779 24.8632 88.421C24.9972 88.247 25.1312 88.08 25.2562 87.908C25.3652 87.727 25.4782 87.549 25.5872 87.375C26.4492 85.962 26.8482 84.536 27.0182 83.354C27.0742 83.06 27.0842 82.774 27.1002 82.508C27.1072 82.375 27.1142 82.245 27.1212 82.12C27.1232 81.994 27.1152 81.873 27.1132 81.756C27.1012 81.523 27.1032 81.308 27.0822 81.11C27.0552 80.912 27.0322 80.732 27.0122 80.572C26.9902 80.415 26.9862 80.493 26.9902 80.701C26.9962 80.91 27.0162 81.246 26.9922 81.602C26.9842 81.781 26.9792 81.964 26.9662 82.137C26.9442 82.311 26.9222 82.475 26.9052 82.618C26.8832 82.759 26.8672 82.879 26.8542 82.964C26.8382 83.047 26.8222 83.095 26.8162 83.095C26.8162 83.082 26.8432 82.67 26.8852 82.045C26.8852 81.418 26.8752 80.587 26.7102 79.795C26.6902 79.695 26.6732 79.597 26.6582 79.499C26.6332 79.401 26.6082 79.307 26.5842 79.212C26.5352 79.023 26.4892 78.838 26.4422 78.663C26.3182 78.32 26.2232 78.001 26.1152 77.752C25.8942 77.256 25.7662 76.983 25.8182 77.135C26.0382 77.726 26.4482 78.809 26.6062 80.286C26.6282 80.47 26.6282 80.659 26.6412 80.856C26.6532 81.049 26.6652 81.25 26.6542 81.455C26.6482 81.661 26.6422 81.87 26.6362 82.083C26.6122 82.296 26.5882 82.512 26.5652 82.732C26.5472 82.956 26.4932 83.175 26.4512 83.401C26.4292 83.514 26.4062 83.628 26.3852 83.742C26.3652 83.858 26.3222 83.968 26.2932 84.082C26.2262 84.31 26.1572 84.54 26.0912 84.773C26.0102 85.001 25.9092 85.227 25.8182 85.46C25.4252 86.371 24.9092 87.287 24.2102 88.087C23.5212 88.895 22.7012 89.62 21.7822 90.207C19.9272 91.345 17.7072 91.913 15.6622 91.748C13.6112 91.638 11.6992 90.884 10.2102 89.796C8.71321 88.706 7.63323 87.3 6.96323 85.906C6.62323 85.208 6.38122 84.517 6.21222 83.857C6.04522 83.198 5.96321 82.573 5.91321 82.003C5.83621 80.859 5.94522 79.942 6.03522 79.316C6.09622 79.001 5.73722 80.206 5.72922 81.538C5.70422 82.203 5.78322 82.885 5.85422 83.397C5.90022 83.654 5.93721 83.869 5.96521 84.018C5.99721 84.166 6.0172 84.254 6.0112 84.256C6.0042 84.258 5.98521 84.216 5.96021 84.143Z" fill="#E6E7E8"/>
<path d="M18.2003 90.457C18.0633 90.497 17.9113 90.557 17.7453 90.596C17.5773 90.634 17.4013 90.67 17.2303 90.708C16.8913 90.795 16.5643 90.81 16.3713 90.842C16.1763 90.87 16.1113 90.886 16.2923 90.884C16.4723 90.882 16.6573 90.879 16.8513 90.874C17.0463 90.868 17.2483 90.83 17.4603 90.809C17.6723 90.783 17.8953 90.757 18.1203 90.695C18.3473 90.639 18.5883 90.592 18.8313 90.519C19.8053 90.228 20.9083 89.711 22.0093 88.832C22.1403 88.715 22.2723 88.595 22.4083 88.473C22.5423 88.349 22.6913 88.233 22.8133 88.088C23.0663 87.806 23.3463 87.527 23.5783 87.192C24.0883 86.552 24.5003 85.772 24.8553 84.908C24.9343 84.687 25.0133 84.462 25.0913 84.233C25.1353 84.12 25.1583 84.002 25.1903 83.88C25.2183 83.76 25.2483 83.64 25.2743 83.519C25.3023 83.397 25.3343 83.274 25.3623 83.15C25.3803 83.025 25.3963 82.899 25.4153 82.77C25.4313 82.642 25.4483 82.512 25.4653 82.381L25.4903 82.186C25.4953 82.121 25.4953 82.054 25.4983 81.988C25.5773 80.922 25.4523 79.772 25.1023 78.618C24.7503 77.457 24.1853 76.392 23.4733 75.482C22.7643 74.568 21.9093 73.813 20.9893 73.233C20.0763 72.64 19.0783 72.277 18.1073 72.037C17.1373 71.788 16.1723 71.746 15.2783 71.801C15.0523 71.82 14.8323 71.835 14.6173 71.859C14.4013 71.9 14.1903 71.939 13.9843 71.978C13.8813 71.999 13.7773 72.013 13.6763 72.041C13.5763 72.069 13.4783 72.099 13.3803 72.127C13.1873 72.186 12.9933 72.238 12.8073 72.298C12.0753 72.578 11.4173 72.883 10.8733 73.245C10.7373 73.334 10.6033 73.423 10.4753 73.508C10.3443 73.59 10.2343 73.694 10.1203 73.783C9.89533 73.967 9.67533 74.129 9.50033 74.317C9.32133 74.499 9.15032 74.661 9.00732 74.82C8.87032 74.987 8.74833 75.141 8.63733 75.279C8.52933 75.416 8.59332 75.358 8.75332 75.196C8.83032 75.114 8.93334 75.007 9.04934 74.885C9.17034 74.767 9.31934 74.649 9.46234 74.52C9.74434 74.253 10.0863 74.027 10.3393 73.847C10.4023 73.803 10.4613 73.76 10.5143 73.726C10.5723 73.694 10.6203 73.667 10.6613 73.644C10.7423 73.601 10.7903 73.578 10.7943 73.582C10.7943 73.584 10.7723 73.603 10.7293 73.634C10.6833 73.663 10.6183 73.707 10.5363 73.762C10.3773 73.887 10.1533 74.064 9.88632 74.276C9.38332 74.729 8.72932 75.354 8.25332 76.091C8.19032 76.181 8.12833 76.27 8.06533 76.357C8.01233 76.452 7.95934 76.545 7.90734 76.638C7.80234 76.822 7.69634 76.999 7.60534 77.175C7.52234 77.355 7.44832 77.529 7.37832 77.688C7.30632 77.851 7.23434 77.997 7.19534 78.139C7.01434 78.7 6.91934 79.012 6.98434 78.851C7.23034 78.214 7.67835 77.033 8.69635 75.788C9.21935 75.183 9.85934 74.551 10.6603 74.015C11.4623 73.487 12.4053 73.041 13.4463 72.772C14.4843 72.5 15.6213 72.408 16.7613 72.544C17.8983 72.677 19.0383 73.033 20.0693 73.603C21.0983 74.168 22.0103 74.947 22.7343 75.857C23.4573 76.764 23.9903 77.801 24.3083 78.858C24.6303 79.916 24.7533 81.012 24.6793 82.067C24.5993 83.125 24.3303 84.135 23.9373 85.051C23.8853 85.164 23.8363 85.278 23.7853 85.391L23.7093 85.559L23.6173 85.719C23.4963 85.931 23.3733 86.141 23.2533 86.349C23.1113 86.544 22.9733 86.736 22.8383 86.93C22.7723 87.029 22.6933 87.117 22.6163 87.204C22.5393 87.291 22.4623 87.379 22.3863 87.466C22.3093 87.551 22.2383 87.642 22.1573 87.724C22.0753 87.8 21.9913 87.878 21.9103 87.955C21.7413 88.107 21.5953 88.277 21.4123 88.403C21.2383 88.54 21.0653 88.674 20.8973 88.803C20.7183 88.925 20.5403 89.036 20.3613 89.148C20.1903 89.27 20.0053 89.36 19.8233 89.451C19.6403 89.541 19.4703 89.647 19.2853 89.717C18.9193 89.861 18.5713 90.02 18.2143 90.108C18.0353 90.159 17.8643 90.217 17.6943 90.258C17.5203 90.292 17.3493 90.324 17.1823 90.356C16.8513 90.436 16.5253 90.442 16.2183 90.48C14.9773 90.572 13.9913 90.392 13.3183 90.266C13.1483 90.237 13.3893 90.303 13.8473 90.422C13.9633 90.448 14.0913 90.49 14.2293 90.513C14.3723 90.534 14.5233 90.556 14.6833 90.579C14.8433 90.598 15.0113 90.636 15.1843 90.643C15.3583 90.65 15.5353 90.659 15.7153 90.665L15.9863 90.676C16.0763 90.676 16.1653 90.667 16.2563 90.664C16.4363 90.655 16.6123 90.643 16.7853 90.634C17.1293 90.605 17.4493 90.538 17.7293 90.502C18.0053 90.447 18.2313 90.382 18.3953 90.344C18.5563 90.307 18.6513 90.287 18.6533 90.293C18.6523 90.304 18.4693 90.369 18.2003 90.457Z" fill="#E6E7E8"/>
<path d="M19.1331 75.655C19.2291 75.705 19.3431 75.755 19.4531 75.823C19.5631 75.892 19.6761 75.966 19.7881 76.035C20.0171 76.168 20.2021 76.337 20.3251 76.42C20.4421 76.509 20.4851 76.534 20.3891 76.441C20.2911 76.346 20.1901 76.249 20.0811 76.147C19.9731 76.048 19.8451 75.96 19.7181 75.859C19.5911 75.76 19.4561 75.657 19.3031 75.568C19.1521 75.478 18.9971 75.376 18.8261 75.285C18.1461 74.923 17.2791 74.616 16.2191 74.504C16.0851 74.499 15.9511 74.49 15.8121 74.485C15.6741 74.48 15.5331 74.464 15.3891 74.477C15.1041 74.494 14.8061 74.495 14.5031 74.553C13.8881 74.625 13.2491 74.828 12.5991 75.104C12.4401 75.18 12.2781 75.26 12.1131 75.341C12.0291 75.377 11.9521 75.428 11.8741 75.478C11.7971 75.527 11.7161 75.577 11.6371 75.627C11.5571 75.676 11.4751 75.729 11.3941 75.779C11.3181 75.839 11.2411 75.896 11.1641 75.956C11.0871 76.016 11.0101 76.077 10.9301 76.14L10.8131 76.23C10.7751 76.263 10.7401 76.3 10.7031 76.334C10.0951 76.864 9.55109 77.551 9.12509 78.357C8.69809 79.17 8.4351 80.043 8.3341 80.911C8.2301 81.78 8.28908 82.642 8.47808 83.442C8.65308 84.247 8.99908 84.974 9.39208 85.619C9.78208 86.269 10.2791 86.805 10.7901 87.252C10.9221 87.359 11.0481 87.469 11.1771 87.571C11.3151 87.663 11.4491 87.754 11.5811 87.843C11.6471 87.886 11.7111 87.935 11.7801 87.973C11.8471 88.012 11.9161 88.048 11.9821 88.084C12.1211 88.157 12.2501 88.23 12.3811 88.298C12.9251 88.537 13.4421 88.721 13.9261 88.815C14.0481 88.839 14.1661 88.862 14.2801 88.886C14.3931 88.911 14.5081 88.913 14.6181 88.928C14.8371 88.947 15.0411 88.977 15.2351 88.968C15.4271 88.967 15.6061 88.97 15.7701 88.963C15.9311 88.944 16.0781 88.926 16.2101 88.91C16.3421 88.896 16.2761 88.891 16.1051 88.893C16.0191 88.896 15.9081 88.898 15.7801 88.902C15.6541 88.902 15.5101 88.887 15.3651 88.88C15.0711 88.873 14.7661 88.813 14.5351 88.776C14.4761 88.766 14.4241 88.756 14.3771 88.749C14.3291 88.736 14.2891 88.723 14.2541 88.714C14.1881 88.694 14.1491 88.682 14.1491 88.677C14.1511 88.675 14.1711 88.677 14.2131 88.683C14.2521 88.691 14.3111 88.704 14.3861 88.718C14.5361 88.735 14.7511 88.758 15.0071 88.786C15.5201 88.809 16.2031 88.82 16.8521 88.676C16.9331 88.662 17.0141 88.647 17.0961 88.633C17.1731 88.611 17.2521 88.587 17.3291 88.567C17.4831 88.524 17.6341 88.485 17.7751 88.439C17.9151 88.384 18.0481 88.33 18.1731 88.284C18.2981 88.232 18.4131 88.194 18.5121 88.138C18.9061 87.931 19.1231 87.814 19.0031 87.866C18.5311 88.08 17.6621 88.475 16.4501 88.606C15.8481 88.653 15.1681 88.651 14.4511 88.517C13.7401 88.375 12.9951 88.112 12.2901 87.704C11.5881 87.296 10.9261 86.742 10.3871 86.065C9.84508 85.387 9.42009 84.589 9.16809 83.736C8.91509 82.885 8.8381 81.98 8.9331 81.106C9.0251 80.23 9.29008 79.39 9.68008 78.653C10.0701 77.912 10.5871 77.256 11.1891 76.728C11.7921 76.202 12.4731 75.799 13.1721 75.518C13.2611 75.482 13.3491 75.45 13.4361 75.415L13.5661 75.365L13.7011 75.327C13.8801 75.28 14.0551 75.229 14.2331 75.182C14.4131 75.151 14.5901 75.12 14.7641 75.091C14.8541 75.073 14.9431 75.065 15.0291 75.059C15.1171 75.053 15.2071 75.046 15.2931 75.04C15.3791 75.035 15.4671 75.023 15.5551 75.024C15.6411 75.027 15.7261 75.027 15.8121 75.03C15.9831 75.039 16.1531 75.027 16.3181 75.053C16.4841 75.073 16.6461 75.092 16.8081 75.111C16.9661 75.141 17.1221 75.178 17.2801 75.21C17.4361 75.238 17.5841 75.288 17.7311 75.334C17.8761 75.384 18.0251 75.418 18.1611 75.476C18.4331 75.596 18.7081 75.694 18.9461 75.837C19.0691 75.904 19.1901 75.964 19.3041 76.033C19.4171 76.107 19.5251 76.18 19.6331 76.253C19.8541 76.384 20.0331 76.556 20.2171 76.698C20.9341 77.308 21.3701 77.93 21.6651 78.355C21.7401 78.461 21.6461 78.296 21.4631 77.988C21.4141 77.913 21.3691 77.823 21.3051 77.735C21.2411 77.649 21.1711 77.557 21.0971 77.458C21.0221 77.364 20.9511 77.255 20.8611 77.159C20.7711 77.065 20.6791 76.964 20.5861 76.865L20.4471 76.715C20.4001 76.667 20.3461 76.624 20.2961 76.58C20.1951 76.489 20.0931 76.401 19.9951 76.314C19.7951 76.145 19.5871 76.012 19.4181 75.883C19.2391 75.766 19.0821 75.681 18.9751 75.615C18.8701 75.547 18.8081 75.508 18.8091 75.505C18.8101 75.497 18.9411 75.56 19.1331 75.655Z" fill="#E6E7E8"/>
<path d="M54.559 88.674C63.104 88.674 70.057 95.6259 70.056 104.172C70.056 112.716 63.105 119.668 54.559 119.668C46.013 119.668 39.063 112.717 39.062 104.172C39.061 95.6269 46.013 88.674 54.559 88.674ZM54.559 117.251C61.772 117.252 67.64 111.384 67.641 104.171C67.64 96.9579 61.772 91.091 54.559 91.091C47.347 91.091 41.479 96.9569 41.479 104.17C41.478 111.384 47.347 117.251 54.559 117.251Z" fill="#939598"/>
<path d="M42.7959 100.313C46.2309 100.904 52.2259 102.338 52.2259 102.338L54.2949 103.562C54.3969 103.838 54.5249 104.184 54.6409 104.5L51.6269 104.447C51.6269 104.447 47.6109 103.131 44.3939 101.94L42.7959 100.313Z" fill="#D1D3D4"/>
<path d="M66.3347 107.988C62.8997 107.398 56.9058 105.966 56.9058 105.966L54.8358 104.74C54.7358 104.464 54.6067 104.119 54.4897 103.803L57.5038 103.854C57.5038 103.854 61.5208 105.173 64.7368 106.362L66.3347 107.988Z" fill="#D1D3D4"/>
<path d="M55.2728 103.562C54.9358 103.225 54.3898 103.224 54.0538 103.561C53.7158 103.899 53.7158 104.444 54.0538 104.782C54.3908 105.119 54.9388 105.119 55.2728 104.782C55.6118 104.444 55.6108 103.898 55.2728 103.562Z" fill="#F1F2F2"/>
<path d="M55.034 104.076C54.816 103.86 54.466 103.86 54.248 104.077C54.029 104.294 54.031 104.645 54.248 104.864C54.467 105.081 54.817 105.082 55.035 104.865C55.252 104.646 55.25 104.295 55.034 104.076Z" fill="white"/>
<path d="M51.1639 114.162C51.0889 114.15 50.9789 114.128 50.8529 114.091C50.7299 114.055 50.5849 114.015 50.4319 113.972C50.2809 113.929 50.1259 113.867 49.9759 113.815C49.6679 113.716 49.3999 113.583 49.2279 113.521C49.0629 113.454 49.0039 113.44 49.1459 113.521C49.7079 113.856 50.4119 114.193 51.3079 114.463C52.2029 114.728 53.2949 114.934 54.5849 114.891C55.2299 114.878 55.9219 114.796 56.6509 114.629C57.3779 114.461 58.1469 114.22 58.9179 113.84C60.4579 113.098 62.0719 111.877 63.2909 110.022L63.5219 109.678C63.5999 109.565 63.6569 109.439 63.7239 109.318C63.8509 109.074 63.9849 108.837 64.1039 108.594C64.2079 108.342 64.3109 108.09 64.4129 107.844L64.4899 107.657C64.5109 107.593 64.5279 107.53 64.5469 107.464C64.5859 107.338 64.6269 107.211 64.6609 107.084C64.7399 106.83 64.8199 106.579 64.8599 106.32C64.9099 106.063 64.9599 105.809 65.0079 105.555C65.0529 105.043 65.1289 104.541 65.1089 104.042C65.1069 103.918 65.1069 103.792 65.1069 103.67C65.1099 103.545 65.1069 103.423 65.0909 103.303C65.0669 103.058 65.0439 102.818 65.0189 102.58L65.0019 102.402L64.9699 102.227C64.9459 102.11 64.9219 101.995 64.8999 101.88C64.8769 101.764 64.8539 101.65 64.8329 101.537L64.7989 101.366L64.7469 101.201C64.6139 100.763 64.5019 100.329 64.3179 99.93C64.2339 99.727 64.1569 99.529 64.0699 99.334C63.9669 99.149 63.8699 98.962 63.7729 98.78C62.9809 97.328 61.9439 96.269 61.0059 95.531C60.7789 95.336 60.5359 95.183 60.3149 95.036C60.2049 94.963 60.0939 94.892 59.9889 94.824C59.8819 94.759 59.7729 94.705 59.6709 94.648C59.4639 94.542 59.2769 94.432 59.0959 94.352C58.9109 94.277 58.7429 94.206 58.5949 94.144C58.4469 94.085 58.5119 94.128 58.6959 94.227C58.8809 94.327 59.1819 94.477 59.4779 94.676C59.6279 94.773 59.7849 94.868 59.9279 94.966C60.0669 95.072 60.1969 95.173 60.3129 95.26C60.4249 95.348 60.5199 95.423 60.5869 95.477C60.6509 95.532 60.6849 95.57 60.6819 95.574C60.6719 95.568 60.3279 95.339 59.8069 94.989C59.2639 94.676 58.5389 94.27 57.7709 94.016C57.6749 93.983 57.5819 93.949 57.4889 93.913C57.3919 93.887 57.2989 93.861 57.2049 93.834C57.0169 93.781 56.8339 93.73 56.6579 93.682C56.2989 93.618 55.9739 93.541 55.7059 93.511C55.1659 93.454 54.8659 93.428 55.0239 93.459C55.6439 93.565 56.7879 93.751 58.1459 94.352C58.3159 94.425 58.4809 94.52 58.6559 94.606C58.8309 94.693 59.0109 94.782 59.1819 94.895C59.3559 95.002 59.5349 95.113 59.7159 95.226C59.8879 95.353 60.0649 95.482 60.2419 95.612C60.4269 95.738 60.5899 95.896 60.7639 96.046C60.8509 96.121 60.9379 96.197 61.0259 96.273C61.1169 96.349 61.1909 96.44 61.2749 96.523C61.4379 96.695 61.6049 96.869 61.7719 97.044C61.9289 97.228 62.0749 97.428 62.2299 97.623C62.8239 98.419 63.3589 99.324 63.7019 100.33C64.0589 101.33 64.2759 102.404 64.3239 103.492C64.3829 105.668 63.7639 107.874 62.5999 109.563C61.4779 111.285 59.8699 112.564 58.1829 113.309C56.4899 114.06 54.7309 114.293 53.1889 114.176C52.4169 114.121 51.6959 113.985 51.0409 113.802C50.3869 113.618 49.8039 113.376 49.2849 113.134C48.2569 112.629 47.5169 112.076 47.0189 111.685C46.7769 111.475 47.6409 112.388 48.7919 113.061C49.3549 113.415 49.9839 113.688 50.4639 113.882C50.7099 113.971 50.9139 114.047 51.0579 114.097C51.2029 114.142 51.2869 114.17 51.2859 114.177C51.2849 114.181 51.2409 114.176 51.1639 114.162Z" fill="#E6E7E8"/>
<path d="M62.7522 106.718C62.7192 106.856 62.6942 107.019 62.6442 107.182C62.5932 107.347 62.5372 107.517 62.4842 107.684C62.3912 108.021 62.2391 108.312 62.1711 108.495C62.0991 108.679 62.0791 108.743 62.1671 108.585C62.2561 108.428 62.3461 108.266 62.4381 108.095C62.5321 107.924 62.5991 107.731 62.6861 107.536C62.7701 107.339 62.8591 107.134 62.9191 106.907C62.9831 106.683 63.0641 106.451 63.1211 106.204C63.3571 105.215 63.4601 104.001 63.2501 102.608C63.2131 102.437 63.1761 102.262 63.1381 102.083C63.0991 101.905 63.0721 101.718 63.0091 101.539C62.8901 101.18 62.7882 100.797 62.6142 100.429C62.3162 99.6679 61.8441 98.9199 61.2751 98.1809C61.1241 98.0029 60.9662 97.8219 60.8082 97.6389C60.7332 97.5439 60.6412 97.4649 60.5532 97.3769C60.4622 97.2929 60.3722 97.2079 60.2822 97.1239C60.1902 97.0389 60.0982 96.9499 60.0062 96.8649C59.9062 96.7849 59.8061 96.7079 59.7031 96.6279C59.6001 96.5499 59.4961 96.4699 59.3911 96.3909L59.2351 96.2699C59.1801 96.2319 59.1231 96.1989 59.0681 96.1649C58.1831 95.5629 57.1261 95.0969 55.9511 94.8229C54.7691 94.5479 53.5641 94.5029 52.4211 94.6649C51.2751 94.8219 50.1931 95.1859 49.2321 95.6919C48.2631 96.1859 47.4492 96.8699 46.7562 97.5889C46.0562 98.3049 45.5351 99.1199 45.1361 99.9219C45.0391 100.126 44.9451 100.324 44.8561 100.523C44.7851 100.73 44.7131 100.933 44.6431 101.13C44.6101 101.23 44.5691 101.327 44.5431 101.427C44.5181 101.527 44.4921 101.628 44.4691 101.727C44.4231 101.923 44.3721 102.117 44.3311 102.307C44.2061 103.082 44.1412 103.805 44.1832 104.456C44.1942 104.618 44.2041 104.777 44.2121 104.932C44.2161 105.086 44.2511 105.234 44.2711 105.377C44.3201 105.665 44.3492 105.936 44.4242 106.181C44.4912 106.427 44.5472 106.657 44.6132 106.86C44.6892 107.061 44.7611 107.245 44.8261 107.41C44.8901 107.572 44.8722 107.488 44.8122 107.268C44.7802 107.16 44.7382 107.017 44.6912 106.856C44.6502 106.693 44.6212 106.505 44.5832 106.316C44.4912 105.938 44.4672 105.53 44.4372 105.22C44.4312 105.142 44.4221 105.07 44.4191 105.008C44.4191 104.942 44.4211 104.886 44.4211 104.839C44.4251 104.747 44.4291 104.694 44.4351 104.693C44.4371 104.694 44.4421 104.722 44.4481 104.775C44.4501 104.829 44.4552 104.908 44.4632 105.007C44.4912 105.207 44.5322 105.489 44.5832 105.826C44.7242 106.489 44.9382 107.367 45.3382 108.148C45.3852 108.248 45.4311 108.346 45.4751 108.444C45.5301 108.538 45.5852 108.63 45.6392 108.722C45.7452 108.905 45.8471 109.085 45.9531 109.251C46.0671 109.413 46.1792 109.565 46.2822 109.706C46.3872 109.85 46.4791 109.985 46.5821 110.09C46.9781 110.526 47.2001 110.765 47.0951 110.628C46.6641 110.096 45.8661 109.117 45.2971 107.614C45.0341 106.858 44.8081 105.988 44.7421 105.026C44.6861 104.067 44.7712 103.029 45.0582 101.992C45.3442 100.957 45.8311 99.9259 46.5181 99.0079C47.2031 98.0899 48.0811 97.2789 49.0901 96.6719C50.0931 96.0649 51.2241 95.6629 52.3741 95.4899C53.5201 95.3189 54.6852 95.3759 55.7602 95.6279C56.8392 95.8779 57.8491 96.3199 58.7241 96.9129C59.6001 97.5109 60.3411 98.2479 60.9381 99.0469C61.0111 99.1489 61.0842 99.2489 61.1572 99.3499L61.2642 99.4989L61.3571 99.6579C61.4791 99.8689 61.6001 100.08 61.7201 100.289C61.8191 100.51 61.9162 100.725 62.0152 100.939C62.0682 101.046 62.1051 101.157 62.1431 101.268C62.1801 101.378 62.2171 101.49 62.2551 101.599C62.2881 101.708 62.3321 101.815 62.3611 101.927C62.3871 102.036 62.4131 102.148 62.4381 102.256C62.4861 102.479 62.5591 102.691 62.5781 102.912C62.6091 103.13 62.6391 103.346 62.6681 103.557C62.6841 103.773 62.6891 103.984 62.6981 104.195C62.7181 104.404 62.7042 104.609 62.6912 104.811C62.6782 105.014 62.6832 105.215 62.6522 105.411C62.5932 105.8 62.5571 106.181 62.4561 106.535C62.4111 106.714 62.3752 106.892 62.3252 107.061C62.2682 107.228 62.2111 107.392 62.1541 107.553C62.0581 107.88 61.9021 108.165 61.7801 108.449C61.2401 109.569 60.5892 110.333 60.1442 110.853C60.0342 110.985 60.2121 110.81 60.5431 110.472C60.6241 110.385 60.7251 110.296 60.8131 110.188C60.9021 110.073 60.9981 109.954 61.0981 109.827C61.1951 109.698 61.3101 109.572 61.4051 109.425C61.4971 109.279 61.5931 109.129 61.6891 108.976L61.8342 108.747C61.8802 108.669 61.9162 108.588 61.9592 108.509C62.0402 108.348 62.1192 108.19 62.1962 108.034C62.3432 107.721 62.4471 107.41 62.5541 107.151C62.6441 106.884 62.7011 106.656 62.7491 106.495C62.8001 106.336 62.8282 106.244 62.8342 106.246C62.8462 106.25 62.8102 106.441 62.7522 106.718Z" fill="#E6E7E8"/>
<path d="M50.3998 98.5099C50.4908 98.4519 50.5908 98.3789 50.7048 98.3159C50.8208 98.2549 50.9398 98.1939 51.0568 98.1329C51.2868 97.9999 51.5268 97.9259 51.6588 97.8599C51.7958 97.8019 51.8378 97.7779 51.7098 97.8149C51.5798 97.8519 51.4438 97.8919 51.3028 97.9339C51.1628 97.9779 51.0228 98.0449 50.8708 98.1049C50.7228 98.1659 50.5648 98.2299 50.4118 98.3189C50.2588 98.4059 50.0908 98.4879 49.9298 98.5909C49.2758 98.9979 48.5758 99.5949 47.9508 100.457C47.8788 100.57 47.8038 100.683 47.7308 100.8C47.6558 100.917 47.5718 101.031 47.5108 101.162C47.3828 101.418 47.2348 101.676 47.1328 101.968C46.8888 102.536 46.7458 103.191 46.6578 103.892C46.6448 104.068 46.6328 104.248 46.6208 104.432C46.6108 104.522 46.6168 104.615 46.6198 104.707C46.6248 104.799 46.6278 104.895 46.6308 104.988C46.6338 105.082 46.6388 105.178 46.6418 105.275C46.6558 105.37 46.6668 105.465 46.6798 105.563C46.6938 105.66 46.7068 105.757 46.7208 105.857L46.7408 106.003C46.7518 106.052 46.7638 106.102 46.7748 106.15C46.9298 106.943 47.2538 107.757 47.7388 108.529C48.2288 109.304 48.8538 109.97 49.5548 110.491C50.2548 111.014 51.0318 111.395 51.8168 111.632C52.6028 111.882 53.4058 111.947 54.1598 111.928C54.9188 111.916 55.6308 111.753 56.2728 111.534C56.4318 111.473 56.5908 111.419 56.7438 111.358C56.8918 111.286 57.0378 111.214 57.1808 111.145C57.2528 111.109 57.3258 111.079 57.3928 111.038C57.4608 110.999 57.5268 110.957 57.5908 110.918C57.7228 110.835 57.8518 110.758 57.9768 110.678C58.4548 110.327 58.8738 109.971 59.1968 109.599C59.2788 109.506 59.3568 109.416 59.4358 109.328C59.5138 109.243 59.5748 109.144 59.6408 109.057C59.7658 108.876 59.8948 108.716 59.9838 108.543C60.0798 108.376 60.1698 108.222 60.2468 108.077C60.3098 107.927 60.3688 107.792 60.4208 107.669C60.4748 107.548 60.4388 107.602 60.3558 107.752C60.3148 107.827 60.2608 107.925 60.1998 108.037C60.1358 108.146 60.0528 108.264 59.9728 108.385C59.8198 108.636 59.6158 108.869 59.4678 109.052C59.4298 109.097 59.3968 109.14 59.3658 109.176C59.3308 109.211 59.2988 109.239 59.2728 109.265C59.2238 109.313 59.1928 109.34 59.1888 109.337C59.1878 109.335 59.1998 109.318 59.2268 109.286C59.2518 109.256 59.2918 109.212 59.3418 109.154C59.4318 109.032 59.5598 108.858 59.7108 108.651C59.9868 108.217 60.3388 107.632 60.5378 106.997C60.5668 106.92 60.5948 106.842 60.6228 106.765C60.6428 106.687 60.6618 106.608 60.6828 106.53C60.7218 106.375 60.7658 106.225 60.7958 106.078C60.8168 105.93 60.8378 105.788 60.8598 105.658C60.8778 105.524 60.9008 105.404 60.9008 105.291C60.9208 104.846 60.9268 104.6 60.9108 104.73C60.8608 105.245 60.7688 106.196 60.2768 107.309C60.0168 107.855 59.6738 108.443 59.1998 108.997C58.7208 109.541 58.1218 110.055 57.4158 110.461C56.7118 110.866 55.8988 111.162 55.0448 111.29C54.1868 111.421 53.2818 111.39 52.4178 111.181C51.5548 110.974 50.7308 110.589 50.0228 110.07C49.3098 109.553 48.7148 108.903 48.2708 108.197C47.8248 107.489 47.5148 106.713 47.3578 105.928C47.2048 105.142 47.1968 104.351 47.3008 103.605C47.3168 103.51 47.3298 103.417 47.3448 103.325L47.3658 103.188L47.4008 103.053C47.4488 102.875 47.4938 102.697 47.5408 102.52C47.6038 102.349 47.6668 102.18 47.7288 102.014C47.7568 101.928 47.7948 101.847 47.8338 101.769C47.8728 101.689 47.9098 101.609 47.9488 101.532C47.9878 101.454 48.0218 101.372 48.0658 101.298C48.1098 101.224 48.1548 101.151 48.1988 101.078C48.2928 100.935 48.3668 100.782 48.4718 100.653C48.5728 100.519 48.6688 100.386 48.7668 100.257C48.8718 100.135 48.9828 100.018 49.0888 99.8979C49.1908 99.7759 49.3078 99.6739 49.4218 99.5699C49.5358 99.4699 49.6408 99.3569 49.7598 99.2689C49.9988 99.0919 50.2218 98.9039 50.4658 98.7679C50.5838 98.6949 50.6978 98.6199 50.8148 98.5559C50.9338 98.4959 51.0508 98.4369 51.1688 98.3809C51.3938 98.2549 51.6308 98.1849 51.8458 98.0969C52.7348 97.7809 53.4908 97.7149 54.0058 97.6719C54.1348 97.6589 53.9458 97.6579 53.5868 97.6639C53.4978 97.6679 53.3968 97.6629 53.2898 97.6759C53.1818 97.6879 53.0678 97.7009 52.9448 97.7159C52.8258 97.7349 52.6968 97.7409 52.5688 97.7699C52.4408 97.8009 52.3068 97.8309 52.1758 97.8609L51.9758 97.9059C51.9098 97.9239 51.8458 97.9469 51.7828 97.9689C51.6548 98.0119 51.5268 98.0559 51.4018 98.0969C51.1548 98.1849 50.9358 98.2979 50.7398 98.3819C50.5508 98.4779 50.3978 98.5699 50.2868 98.6319C50.1748 98.6899 50.1108 98.7229 50.1078 98.7199C50.1018 98.7099 50.2218 98.6279 50.3998 98.5099Z" fill="#E6E7E8"/>
<path d="M79.388 74.34C83.66 66.94 93.159 64.394 100.558 68.668C107.957 72.94 110.502 82.436 106.229 89.837C101.957 97.237 92.462 99.78 85.062 95.509C77.661 91.236 75.114 81.74 79.388 74.34ZM104.136 88.628C107.744 82.381 105.596 74.366 99.35 70.758C93.103 67.153 85.088 69.301 81.482 75.548C77.877 81.794 80.022 89.808 86.269 93.415C92.515 97.022 100.529 94.873 104.136 88.628Z" fill="#939598"/>
<path d="M83.5859 90.345C85.8159 87.666 90.0539 83.192 90.0539 83.192L92.1499 82.011C92.4389 82.062 92.8039 82.123 93.1349 82.18L91.5819 84.763C91.5819 84.763 88.4339 87.583 85.7939 89.774L83.5859 90.345Z" fill="#D1D3D4"/>
<path d="M102.003 73.798C99.7741 76.478 95.537 80.953 95.537 80.953L93.4401 82.133C93.1501 82.083 92.7871 82.021 92.4561 81.964L94.0081 79.38C94.0081 79.38 97.1581 76.56 99.7961 74.37L102.003 73.798Z" fill="#D1D3D4"/>
<path d="M92.6381 81.164C92.1781 81.287 91.9051 81.76 92.0271 82.22C92.1531 82.68 92.6251 82.953 93.0861 82.829C93.5461 82.706 93.8201 82.231 93.6941 81.773C93.5711 81.312 93.0991 81.04 92.6381 81.164Z" fill="#F1F2F2"/>
<path d="M92.9648 81.629C92.6688 81.71 92.4908 82.013 92.5718 82.311C92.6508 82.608 92.9558 82.782 93.2548 82.704C93.5508 82.623 93.7278 82.32 93.6488 82.023C93.5648 81.725 93.2618 81.551 92.9648 81.629Z" fill="white"/>
<path d="M99.763 90.0229C99.716 90.0819 99.643 90.1659 99.547 90.2549C99.454 90.3439 99.346 90.4499 99.233 90.5609C99.121 90.6709 98.99 90.7729 98.87 90.8779C98.631 91.0939 98.381 91.2599 98.241 91.3779C98.099 91.4879 98.058 91.5309 98.2 91.4489C98.77 91.1299 99.415 90.6879 100.097 90.0479C100.775 89.4049 101.498 88.5629 102.107 87.4229C102.417 86.8599 102.694 86.2179 102.914 85.5039C103.131 84.7899 103.307 84.0029 103.364 83.1469C103.492 81.4419 103.241 79.4339 102.244 77.4519L102.062 77.0789C102.003 76.9549 101.922 76.8419 101.851 76.7239C101.703 76.4919 101.564 76.2569 101.413 76.0329C101.247 75.8169 101.081 75.6019 100.917 75.3909L100.796 75.2299C100.749 75.1809 100.703 75.1329 100.656 75.0839C100.565 74.9879 100.476 74.8889 100.384 74.7959C100.203 74.5999 100.027 74.4049 99.823 74.2409C99.626 74.0699 99.43 73.8989 99.233 73.7299C98.813 73.4359 98.417 73.1179 97.973 72.8859C97.867 72.8249 97.757 72.7619 97.651 72.7009C97.545 72.6379 97.438 72.5779 97.325 72.5319C97.102 72.4299 96.883 72.3299 96.664 72.2329L96.501 72.1589L96.334 72.0999C96.22 72.0619 96.108 72.0249 95.998 71.9869C95.887 71.9479 95.776 71.9119 95.666 71.8739L95.502 71.8169L95.333 71.7789C94.888 71.6749 94.455 71.5549 94.019 71.5149C93.8 71.4869 93.59 71.4539 93.378 71.4319C93.166 71.4269 92.955 71.4189 92.75 71.4109C91.096 71.3699 89.661 71.7399 88.552 72.1829C88.27 72.2809 88.017 72.4159 87.779 72.5349C87.661 72.5949 87.546 72.6549 87.433 72.7099C87.322 72.7719 87.221 72.8379 87.12 72.8989C86.926 73.0249 86.737 73.1309 86.578 73.2489C86.419 73.3719 86.274 73.4809 86.146 73.5789C86.022 73.6769 86.091 73.6419 86.269 73.5329C86.448 73.4239 86.728 73.2379 87.048 73.0799C87.208 72.9979 87.368 72.9099 87.525 72.8349C87.686 72.7669 87.839 72.7049 87.972 72.6479C88.104 72.5959 88.216 72.5499 88.296 72.5189C88.376 72.4899 88.425 72.4799 88.428 72.4849C88.417 72.4909 88.047 72.6739 87.485 72.9499C86.942 73.2639 86.227 73.6879 85.623 74.2279C85.547 74.2929 85.472 74.3579 85.394 74.4199C85.324 74.4899 85.253 74.5589 85.183 74.6259C85.043 74.7629 84.908 74.8959 84.779 75.0229C84.544 75.3029 84.314 75.5439 84.153 75.7619C83.835 76.2019 83.662 76.4479 83.767 76.3279C84.169 75.8429 84.902 74.9459 86.102 74.0699C86.25 73.9599 86.414 73.8629 86.579 73.7549C86.74 73.6479 86.907 73.5359 87.091 73.4449C87.272 73.3469 87.456 73.2479 87.645 73.1469C87.84 73.0619 88.04 72.9739 88.242 72.8849C88.444 72.7869 88.662 72.7249 88.88 72.6489C88.988 72.6109 89.098 72.5739 89.207 72.5349C89.318 72.4939 89.434 72.4769 89.548 72.4449C89.78 72.3889 90.014 72.3329 90.248 72.2749C90.485 72.2309 90.732 72.2049 90.978 72.1669C91.964 72.0519 93.016 72.0399 94.058 72.2459C95.102 72.4379 96.14 72.7859 97.107 73.2879C99.021 74.3259 100.623 75.9639 101.503 77.8159C102.434 79.6489 102.736 81.6819 102.538 83.5149C102.344 85.3569 101.666 86.9959 100.793 88.2729C100.359 88.9149 99.881 89.4699 99.395 89.9469C98.909 90.4209 98.408 90.8049 97.939 91.1329C96.988 91.7709 96.137 92.1349 95.551 92.3699C95.246 92.4739 96.471 92.1819 97.627 91.5229C98.217 91.2119 98.767 90.8029 99.175 90.4849C99.375 90.3169 99.542 90.1779 99.657 90.0779C99.769 89.9759 99.836 89.9159 99.841 89.9199C99.841 89.9269 99.813 89.9639 99.763 90.0229Z" fill="#E6E7E8"/>
<path d="M99.1111 76.2659C99.2141 76.3639 99.3421 76.4669 99.4601 76.5899C99.5761 76.7169 99.6941 76.8519 99.8131 76.9799C100.057 77.2289 100.235 77.5069 100.357 77.6579C100.481 77.8119 100.527 77.8599 100.432 77.7049C100.342 77.5509 100.247 77.3909 100.146 77.2249C100.043 77.0599 99.9111 76.9049 99.7851 76.7309C99.6561 76.5599 99.5221 76.3799 99.3551 76.2149C99.1951 76.0469 99.0331 75.8609 98.8481 75.6879C98.1091 74.9899 97.1101 74.2939 95.7971 73.7789C95.6311 73.7249 95.4601 73.6709 95.2861 73.6139C95.1121 73.5599 94.9361 73.4889 94.7501 73.4549C94.3801 73.3779 93.9991 73.2739 93.5931 73.2419C92.7831 73.1189 91.9021 73.1539 90.9771 73.2769C90.7461 73.3179 90.5111 73.3629 90.2731 73.4089C90.1551 73.4269 90.0391 73.4669 89.9201 73.4999C89.8021 73.5369 89.6841 73.5719 89.5641 73.6079C89.4461 73.6449 89.3231 73.6799 89.2021 73.7169C89.0841 73.7639 88.9671 73.8129 88.8451 73.8609C88.7271 73.9119 88.6061 73.9609 88.4851 74.0129L88.3021 74.0879C88.2411 74.1169 88.1851 74.1499 88.1271 74.1789C87.1631 74.6449 86.2301 75.3279 85.4061 76.2079C84.5771 77.0939 83.9351 78.1159 83.5051 79.1869C83.0691 80.2579 82.8411 81.3759 82.7991 82.4629C82.7431 83.5489 82.9271 84.5959 83.2051 85.5559C83.4731 86.5199 83.9211 87.3779 84.4151 88.1249C84.5451 88.3099 84.6681 88.4919 84.7951 88.6689C84.9391 88.8339 85.0771 88.9979 85.2151 89.1569C85.2831 89.2359 85.3491 89.3189 85.4231 89.3919C85.4971 89.4629 85.5711 89.5359 85.6461 89.6049C85.7931 89.7429 85.9351 89.8849 86.0801 90.0149C86.6881 90.5109 87.2821 90.9279 87.8681 91.2169C88.0141 91.2899 88.1571 91.3609 88.2951 91.4289C88.4311 91.5039 88.5751 91.5469 88.7101 91.6009C88.9821 91.7029 89.2331 91.8129 89.4821 91.8699C89.7291 91.9339 89.9561 92.0009 90.1651 92.0449C90.3781 92.0799 90.5731 92.1089 90.7481 92.1359C90.9211 92.1619 90.8391 92.1349 90.6181 92.0769C90.5091 92.0509 90.3641 92.0149 90.2011 91.9749C90.0401 91.9299 89.8631 91.8599 89.6791 91.7999C89.3081 91.6889 88.9411 91.5059 88.6581 91.3779C88.5891 91.3439 88.5201 91.3149 88.4661 91.2859C88.4091 91.2529 88.3611 91.2239 88.3211 91.2009C88.2421 91.1519 88.2001 91.1219 88.2011 91.1169C88.2031 91.1159 88.2291 91.1259 88.2791 91.1469C88.3271 91.1719 88.3971 91.2069 88.4871 91.2499C88.6751 91.3259 88.9391 91.4309 89.2571 91.5559C89.9001 91.7649 90.7691 92.0179 91.6461 92.0619C91.7561 92.0719 91.8641 92.0809 91.9711 92.0919C92.0781 92.0909 92.1871 92.0899 92.2931 92.0889C92.5041 92.0879 92.7111 92.0909 92.9071 92.0809C93.1041 92.0629 93.2921 92.0419 93.4661 92.0229C93.6451 92.0029 93.8061 91.9919 93.9481 91.9559C94.5231 91.8309 94.8431 91.7579 94.6701 91.7819C93.9951 91.8879 92.7491 92.0889 91.1611 91.8309C90.3761 91.6809 89.5101 91.4419 88.6421 91.0179C87.7851 90.5859 86.9281 89.9929 86.1731 89.2259C85.4191 88.4609 84.7711 87.5239 84.3191 86.4689C83.8671 85.4179 83.6031 84.2519 83.5821 83.0739C83.5591 81.9009 83.7761 80.7209 84.2021 79.6389C84.6261 78.5599 85.2591 77.5799 86.0131 76.7759C86.7681 75.9669 87.6571 75.3129 88.6081 74.8509C89.5631 74.3909 90.5721 74.1179 91.5631 74.0009C91.6871 73.9889 91.8101 73.9759 91.9331 73.9619L92.1171 73.9449L92.3021 73.9439C92.5461 73.9429 92.7891 73.9439 93.0311 73.9449C93.2701 73.9689 93.5071 73.9919 93.7421 74.0139C93.8611 74.0219 93.9751 74.0459 94.0911 74.0679C94.2031 74.0909 94.3191 74.1139 94.4331 74.1359C94.5431 74.1609 94.6591 74.1779 94.7711 74.2069C94.8771 74.2389 94.9881 74.2729 95.0941 74.3049C95.3101 74.3759 95.5301 74.4179 95.7321 74.5129C95.9361 74.5939 96.1381 74.6769 96.3361 74.7579C96.5311 74.8519 96.7171 74.9519 96.9021 75.0499C97.0931 75.1369 97.2641 75.2519 97.4331 75.3649C97.6031 75.4769 97.7791 75.5729 97.9331 75.6979C98.2411 75.9439 98.5531 76.1649 98.8081 76.4309C98.9411 76.5589 99.0761 76.6789 99.1991 76.8059C99.3141 76.9389 99.4271 77.0699 99.5401 77.1999C99.7741 77.4469 99.9421 77.7249 100.128 77.9729C100.829 78.9999 101.165 79.9459 101.393 80.5909C101.452 80.7529 101.391 80.5109 101.263 80.0549C101.229 79.9419 101.202 79.8099 101.152 79.6799C101.097 79.5459 101.042 79.4029 100.982 79.2529C100.918 79.1049 100.866 78.9409 100.787 78.7869C100.707 78.6339 100.626 78.4749 100.541 78.3159L100.414 78.0769C100.371 77.9979 100.319 77.9259 100.27 77.8499C100.172 77.6989 100.075 77.5509 99.9791 77.4059C99.7821 77.1219 99.5641 76.8779 99.3921 76.6549C99.2061 76.4429 99.0381 76.2799 98.9221 76.1579C98.8091 76.0349 98.7441 75.9639 98.7491 75.9599C98.7521 75.9509 98.9011 76.0769 99.1111 76.2659Z" fill="#E6E7E8"/>
<path d="M85.8259 82.859C85.8209 82.751 85.808 82.626 85.811 82.498C85.815 82.367 85.8229 82.232 85.8279 82.101C85.8279 81.836 85.8829 81.591 85.8919 81.444C85.9089 81.297 85.9099 81.248 85.8789 81.378C85.8459 81.509 85.812 81.647 85.777 81.791C85.747 81.935 85.7339 82.09 85.7099 82.25C85.6879 82.409 85.6659 82.578 85.6659 82.755C85.6639 82.931 85.6519 83.116 85.6599 83.309C85.6849 84.079 85.852 84.984 86.286 85.956C86.349 86.075 86.4079 86.197 86.4739 86.318C86.5379 86.441 86.595 86.571 86.678 86.689C86.835 86.928 86.985 87.186 87.187 87.419C87.557 87.915 88.0529 88.366 88.6159 88.792C88.7619 88.892 88.9119 88.992 89.0649 89.095C89.1369 89.148 89.2209 89.19 89.3019 89.233C89.3849 89.275 89.4679 89.32 89.5499 89.364C89.6329 89.408 89.7199 89.452 89.8049 89.498C89.8929 89.534 89.9809 89.572 90.0719 89.61C90.1629 89.646 90.2539 89.683 90.3489 89.72L90.484 89.776C90.531 89.793 90.582 89.806 90.63 89.821C91.394 90.083 92.2609 90.21 93.1719 90.176C94.0879 90.139 94.977 89.93 95.778 89.584C96.582 89.24 97.2989 88.757 97.8969 88.195C98.5069 87.639 98.9639 86.977 99.3259 86.315C99.6939 85.651 99.9099 84.954 100.042 84.287C100.068 84.119 100.1 83.954 100.123 83.791C100.135 83.627 100.145 83.465 100.157 83.306C100.162 83.225 100.173 83.146 100.171 83.069C100.172 82.991 100.168 82.913 100.166 82.838C100.159 82.683 100.157 82.533 100.15 82.384C100.084 81.795 99.9869 81.254 99.8259 80.788C99.7859 80.671 99.7479 80.557 99.7109 80.445C99.6759 80.334 99.6209 80.234 99.5779 80.132C99.4849 79.933 99.4089 79.741 99.3039 79.577C99.2069 79.412 99.1199 79.256 99.0329 79.117C98.9339 78.988 98.8469 78.869 98.7659 78.763C98.6889 78.656 98.7159 78.715 98.8049 78.863C98.8509 78.936 98.908 79.031 98.976 79.139C99.036 79.249 99.0969 79.381 99.1619 79.51C99.3039 79.769 99.403 80.063 99.488 80.281C99.509 80.336 99.526 80.386 99.544 80.431C99.557 80.478 99.565 80.52 99.575 80.555C99.591 80.622 99.5979 80.662 99.5949 80.664C99.5919 80.664 99.584 80.645 99.57 80.606C99.556 80.568 99.5389 80.511 99.5119 80.439C99.4509 80.3 99.3649 80.102 99.2619 79.868C99.0239 79.412 98.693 78.815 98.242 78.325C98.189 78.261 98.1369 78.199 98.0849 78.136C98.0259 78.081 97.9669 78.024 97.9089 77.966C97.7949 77.855 97.686 77.743 97.575 77.643C97.458 77.55 97.345 77.461 97.243 77.377C97.137 77.294 97.0449 77.213 96.9469 77.157C96.5689 76.918 96.3609 76.789 96.4659 76.868C96.8869 77.168 97.6629 77.723 98.3829 78.707C98.7249 79.206 99.0639 79.796 99.3039 80.484C99.5379 81.171 99.682 81.947 99.682 82.761C99.68 83.574 99.5319 84.425 99.2139 85.229C98.8979 86.038 98.419 86.805 97.807 87.449C97.196 88.094 96.4519 88.614 95.6469 88.968C94.8429 89.327 93.9819 89.517 93.1489 89.549C92.3129 89.581 91.4859 89.462 90.7269 89.204C89.9699 88.945 89.2809 88.556 88.6879 88.092C88.6129 88.032 88.54 87.973 88.467 87.914L88.3579 87.827L88.2589 87.729C88.1279 87.599 87.9959 87.471 87.8659 87.341C87.7489 87.2 87.6339 87.063 87.5219 86.925C87.4609 86.857 87.4099 86.784 87.3619 86.712C87.3119 86.639 87.2619 86.566 87.2139 86.494C87.1669 86.421 87.111 86.351 87.071 86.275C87.028 86.199 86.988 86.124 86.946 86.049C86.87 85.897 86.7729 85.757 86.7159 85.599C86.6489 85.446 86.5829 85.296 86.5199 85.146C86.4669 84.993 86.4209 84.839 86.3709 84.687C86.3149 84.538 86.2859 84.385 86.2529 84.234C86.2239 84.085 86.178 83.938 86.161 83.792C86.128 83.496 86.0759 83.208 86.0799 82.931C86.0759 82.79 86.067 82.656 86.071 82.522C86.078 82.388 86.088 82.257 86.096 82.128C86.1 81.871 86.1569 81.63 86.1889 81.399C86.3599 80.472 86.6799 79.784 86.8999 79.316C86.9549 79.198 86.8589 79.361 86.6839 79.674C86.6429 79.753 86.588 79.838 86.544 79.938C86.502 80.037 86.4559 80.142 86.4079 80.256C86.3639 80.368 86.3049 80.483 86.2659 80.61C86.2299 80.735 86.1879 80.866 86.1489 80.995L86.0889 81.191C86.0719 81.257 86.0609 81.324 86.0479 81.39C86.0209 81.523 85.9939 81.656 85.9679 81.784C85.9199 82.042 85.9089 82.288 85.8829 82.5C85.8709 82.712 85.8749 82.891 85.8729 83.017C85.8669 83.143 85.864 83.216 85.859 83.216C85.851 83.217 85.8399 83.072 85.8259 82.859Z" fill="#E6E7E8"/>
<path d="M79.3881 45.6699C75.1161 38.2699 77.6611 28.772 85.0621 24.5C92.4611 20.228 101.958 22.771 106.23 30.173C110.503 37.573 107.959 47.068 100.559 51.341C93.1581 55.614 83.6611 53.0699 79.3881 45.6699ZM104.137 31.382C100.532 25.134 92.5151 22.986 86.2691 26.592C80.0221 30.199 77.8761 38.2139 81.4831 44.4609C85.0871 50.7059 93.1021 52.856 99.3481 49.248C105.596 45.642 107.741 37.627 104.137 31.382Z" fill="#939598"/>
<path d="M95.3502 50.0359C94.1452 46.7649 92.3892 40.8579 92.3892 40.8579L92.4121 38.4529C92.6021 38.2279 92.8382 37.9429 93.0532 37.6849L94.5142 40.3209C94.5142 40.3209 95.3822 44.4569 95.9612 47.8399L95.3502 50.0359Z" fill="#D1D3D4"/>
<path d="M90.2271 25.814C91.4341 29.083 93.1902 34.99 93.1902 34.99L93.1642 37.396C92.9752 37.621 92.7412 37.906 92.5262 38.164L91.0631 35.528C91.0631 35.528 90.1962 31.39 89.6182 28.01L90.2271 25.814Z" fill="#D1D3D4"/>
<path d="M91.9233 37.606C91.7983 38.067 92.0723 38.54 92.5323 38.663C92.9943 38.785 93.4663 38.513 93.5903 38.051C93.7143 37.591 93.4403 37.116 92.9803 36.996C92.5183 36.872 92.0473 37.145 91.9233 37.606Z" fill="#F1F2F2"/>
<path d="M92.4892 37.5569C92.4102 37.8539 92.5852 38.1579 92.8842 38.2379C93.1802 38.3179 93.4832 38.1409 93.5652 37.8439C93.6432 37.5469 93.4681 37.2419 93.1711 37.1619C92.8741 37.0829 92.5702 37.2599 92.4892 37.5569Z" fill="white"/>
<path d="M103.158 35.8659C103.186 35.9359 103.221 36.0419 103.251 36.1689C103.282 36.2939 103.32 36.4399 103.359 36.5929C103.398 36.7459 103.42 36.9099 103.451 37.0669C103.518 37.3829 103.538 37.6819 103.57 37.8619C103.593 38.0389 103.612 38.0959 103.611 37.9329C103.62 37.2799 103.559 36.4999 103.346 35.5899C103.128 34.6809 102.76 33.6329 102.077 32.5359C101.744 31.9859 101.326 31.4259 100.817 30.8779C100.307 30.3339 99.714 29.7879 99.001 29.3099C97.588 28.3479 95.724 27.5599 93.509 27.4319L93.095 27.4039C92.958 27.3929 92.821 27.4059 92.683 27.4089C92.408 27.4209 92.134 27.4229 91.866 27.4419C91.595 27.4779 91.324 27.5149 91.062 27.5499L90.861 27.5759C90.796 27.5909 90.7309 27.6069 90.6659 27.6229C90.5369 27.6529 90.406 27.6809 90.28 27.7149C90.02 27.7729 89.762 27.8289 89.518 27.9239C89.271 28.0089 89.027 28.0919 88.781 28.1779C88.316 28.3949 87.8429 28.5799 87.4209 28.8469C87.3149 28.9099 87.205 28.9729 87.099 29.0339C86.993 29.0939 86.886 29.1569 86.79 29.2319C86.591 29.3749 86.394 29.5149 86.2 29.6549L86.0539 29.7589L85.917 29.8739C85.828 29.9549 85.741 30.0319 85.653 30.1079C85.562 30.1849 85.476 30.2629 85.389 30.3389L85.256 30.4529L85.139 30.5799C84.828 30.9139 84.507 31.2279 84.254 31.5859C84.121 31.7599 83.986 31.9269 83.861 32.0989C83.752 32.2799 83.639 32.4589 83.53 32.6329C82.669 34.0449 82.27 35.4719 82.1 36.6539C82.043 36.9469 82.034 37.2339 82.017 37.4999C82.011 37.6319 82.004 37.7619 81.996 37.8869C81.994 38.0139 82.001 38.1339 82.003 38.2519C82.015 38.4839 82.014 38.6999 82.035 38.8979C82.061 39.0959 82.085 39.2759 82.105 39.4359C82.126 39.5929 82.131 39.5149 82.126 39.3069C82.12 39.0989 82.0989 38.7619 82.1229 38.4059C82.1309 38.2259 82.137 38.0439 82.15 37.8709C82.171 37.6979 82.194 37.5339 82.21 37.3899C82.233 37.2489 82.249 37.1289 82.262 37.0439C82.277 36.9609 82.294 36.9129 82.299 36.9139C82.299 36.9259 82.272 37.3379 82.23 37.9639C82.23 38.5909 82.241 39.4219 82.406 40.2139C82.426 40.3129 82.443 40.4099 82.458 40.5099C82.483 40.6059 82.508 40.6999 82.532 40.7959C82.58 40.9849 82.626 41.1699 82.674 41.3449C82.797 41.6889 82.893 42.0089 83.001 42.2559C83.222 42.7529 83.35 43.0249 83.298 42.8739C83.078 42.2829 82.668 41.1999 82.509 39.7229C82.488 39.5389 82.487 39.3499 82.475 39.1529C82.462 38.9589 82.451 38.7579 82.462 38.5539C82.468 38.3489 82.4739 38.1389 82.4809 37.9259C82.5049 37.7139 82.529 37.4969 82.552 37.2769C82.57 37.0529 82.6239 36.8339 82.6659 36.6079C82.6879 36.4949 82.7109 36.3809 82.7309 36.2679C82.7509 36.1519 82.794 36.0429 82.823 35.9279C82.89 35.6999 82.959 35.4689 83.026 35.2369C83.107 35.0089 83.208 34.7819 83.298 34.5499C83.69 33.6389 84.207 32.7229 84.906 31.9229C85.594 31.1149 86.414 30.3899 87.334 29.8039C89.188 28.6649 91.409 28.0969 93.452 28.2619C95.505 28.3719 97.417 29.1259 98.906 30.2139C100.403 31.3039 101.483 32.7109 102.153 34.1049C102.492 34.8009 102.734 35.4939 102.904 36.1529C103.071 36.8109 103.153 37.4369 103.202 38.0069C103.279 39.1499 103.17 40.0669 103.081 40.6939C103.019 41.0089 103.378 39.8039 103.387 38.4719C103.411 37.8059 103.332 37.1259 103.262 36.6129C103.215 36.3549 103.179 36.1409 103.151 35.9919C103.119 35.8439 103.099 35.7559 103.106 35.7539C103.115 35.7499 103.132 35.7919 103.158 35.8659Z" fill="#E6E7E8"/>
<path d="M90.9181 29.5519C91.0541 29.5109 91.2071 29.4519 91.3731 29.4119C91.5411 29.3739 91.7171 29.3389 91.8881 29.3009C92.2261 29.2139 92.5541 29.1999 92.7471 29.1679C92.9421 29.1379 93.0071 29.1229 92.8261 29.1259C92.6451 29.1269 92.4611 29.1299 92.2671 29.1349C92.0711 29.1409 91.8711 29.1779 91.6581 29.1999C91.4461 29.2259 91.2221 29.2519 90.9971 29.3149C90.7711 29.3699 90.5291 29.4179 90.2871 29.4909C89.3121 29.7819 88.2101 30.2999 87.1081 31.1779C86.9781 31.2949 86.8461 31.4149 86.7101 31.5379C86.5761 31.6609 86.4271 31.7779 86.3041 31.9229C86.0511 32.2049 85.7721 32.4829 85.5401 32.8179C85.0291 33.4589 84.6181 34.2399 84.2631 35.1019C84.1841 35.3229 84.1051 35.5489 84.0261 35.7779C83.9821 35.8899 83.9601 36.0089 83.9281 36.1289C83.9001 36.2499 83.8711 36.3699 83.8441 36.4909C83.8161 36.6129 83.7841 36.7359 83.7561 36.8599C83.7381 36.9849 83.7221 37.1119 83.7031 37.2409C83.6871 37.3679 83.6701 37.4979 83.6531 37.6289L83.6281 37.8239C83.6231 37.8899 83.6231 37.9569 83.6191 38.0209C83.5411 39.0879 83.6651 40.2389 84.0161 41.3919C84.3681 42.5529 84.9331 43.6189 85.6451 44.5279C86.3541 45.4419 87.2101 46.1969 88.1291 46.7779C89.0411 47.3689 90.0391 47.7339 91.0111 47.9729C91.9801 48.2229 92.9471 48.2639 93.8401 48.2089C94.0661 48.1899 94.2851 48.1739 94.5011 48.1509C94.7171 48.1089 94.9271 48.0699 95.1341 48.0309C95.2371 48.0109 95.3411 47.9969 95.4421 47.9689C95.5421 47.9399 95.6401 47.9109 95.7381 47.8829C95.9301 47.8249 96.1251 47.7729 96.3101 47.7129C97.0421 47.4329 97.7011 47.1279 98.2441 46.7649C98.3811 46.6749 98.5141 46.5859 98.6421 46.5009C98.7741 46.4209 98.8831 46.3179 98.9981 46.2279C99.2231 46.0429 99.4431 45.8809 99.6171 45.6949C99.7961 45.5129 99.9681 45.3499 100.11 45.1909C100.248 45.0239 100.371 44.8689 100.481 44.7309C100.589 44.5949 100.525 44.6529 100.365 44.8149C100.288 44.8959 100.184 45.0039 100.069 45.1239C99.9471 45.2419 99.7991 45.3599 99.6551 45.4899C99.3731 45.7559 99.0331 45.9819 98.7791 46.1629C98.7141 46.2059 98.6561 46.2499 98.6041 46.2839C98.5461 46.3159 98.4971 46.3429 98.4571 46.3659C98.3751 46.4099 98.3281 46.4319 98.3241 46.4279C98.3241 46.4259 98.3461 46.4079 98.3891 46.3749C98.4361 46.3469 98.5011 46.3029 98.5821 46.2469C98.7421 46.1219 98.9651 45.9449 99.2311 45.7329C99.7351 45.2799 100.389 44.6539 100.865 43.9179C100.928 43.8279 100.99 43.7389 101.054 43.6509C101.107 43.5569 101.159 43.4629 101.212 43.3699C101.316 43.1859 101.421 43.0089 101.513 42.8329C101.596 42.6539 101.67 42.4799 101.741 42.3209C101.813 42.1569 101.884 42.0119 101.924 41.8689C102.104 41.3089 102.2 40.9959 102.134 41.1569C101.889 41.7959 101.441 42.9749 100.422 44.2199C99.9011 44.8259 99.2601 45.4559 98.4591 45.9939C97.6571 46.5219 96.7141 46.9669 95.6731 47.2379C94.6341 47.5079 93.4981 47.6009 92.3591 47.4649C91.2211 47.3309 90.0811 46.9759 89.0491 46.4059C88.0211 45.8399 87.1091 45.0609 86.3841 44.1519C85.6621 43.2449 85.1281 42.2079 84.8111 41.1509C84.4881 40.0919 84.3651 38.9959 84.4411 37.9419C84.5191 36.8839 84.7881 35.8749 85.1821 34.9579C85.2341 34.8439 85.2831 34.7309 85.3341 34.6179L85.4101 34.4509L85.5021 34.2899C85.6231 34.0779 85.7451 33.8679 85.8661 33.6599C86.0091 33.4639 86.1461 33.2719 86.2821 33.0789C86.3481 32.9799 86.4271 32.8929 86.5031 32.8039C86.5791 32.7179 86.6571 32.6299 86.7331 32.5429C86.8101 32.4589 86.8811 32.3679 86.9631 32.2849C87.0441 32.2079 87.1291 32.1299 87.2101 32.0539C87.3791 31.9019 87.5261 31.7319 87.7081 31.6059C87.8811 31.4699 88.0551 31.3359 88.2221 31.2059C88.4011 31.0839 88.5801 30.9739 88.7581 30.8609C88.9301 30.7379 89.1141 30.6479 89.2971 30.5579C89.4791 30.4669 89.6501 30.3619 89.8341 30.2919C90.2011 30.1469 90.5491 29.9889 90.9061 29.8999C91.0851 29.8499 91.2571 29.7919 91.4271 29.7509C91.6001 29.7169 91.7711 29.6849 91.9391 29.6519C92.2701 29.5719 92.5951 29.5649 92.9031 29.5279C94.1441 29.4349 95.1311 29.6159 95.8021 29.7429C95.9731 29.7709 95.7311 29.7039 95.2741 29.5869C95.1581 29.5599 95.0301 29.5179 94.8921 29.4959C94.7471 29.4769 94.5981 29.4539 94.4381 29.4289C94.2781 29.4099 94.1091 29.3729 93.9361 29.3649C93.7631 29.3589 93.5861 29.3499 93.4061 29.3439L93.1351 29.3339C93.0461 29.3319 92.9571 29.3419 92.8661 29.3449C92.6861 29.3549 92.5101 29.3659 92.3371 29.3759C91.9931 29.4039 91.6711 29.4709 91.3931 29.5069C91.1161 29.5619 90.8911 29.6279 90.7271 29.6659C90.5651 29.7029 90.4701 29.7229 90.4691 29.7169C90.4661 29.7049 90.6491 29.6399 90.9181 29.5519Z" fill="#E6E7E8"/>
<path d="M89.985 44.3539C89.889 44.3029 89.7751 44.2519 89.6651 44.1859C89.5551 44.1159 89.441 44.0429 89.33 43.9729C89.101 43.8399 88.9161 43.6699 88.7931 43.5879C88.6751 43.4999 88.6331 43.4739 88.7281 43.5649C88.8261 43.6599 88.9271 43.7589 89.0361 43.8599C89.1441 43.9589 89.273 44.0479 89.399 44.1479C89.527 44.2459 89.6621 44.3499 89.8151 44.4389C89.9661 44.5279 90.1211 44.6309 90.2921 44.7199C90.9721 45.0819 91.8391 45.3909 92.8971 45.5009C93.0311 45.5069 93.167 45.5159 93.304 45.5209C93.443 45.5269 93.5841 45.5419 93.7281 45.5289C94.0131 45.5119 94.3111 45.5129 94.6141 45.4539C95.2291 45.3819 95.8681 45.1779 96.5181 44.9029C96.6771 44.8269 96.8391 44.7469 97.0051 44.6659C97.0881 44.6289 97.1651 44.5779 97.2431 44.5299C97.3211 44.4789 97.4011 44.4289 97.4801 44.3799C97.5591 44.3299 97.6411 44.2769 97.7231 44.2269C97.7981 44.1679 97.8751 44.1109 97.9531 44.0509C98.0301 43.9899 98.1071 43.9289 98.1861 43.8669L98.304 43.7769C98.341 43.7439 98.3771 43.7079 98.4141 43.6739C99.0221 43.1429 99.5651 42.4559 99.9921 41.6499C100.418 40.8379 100.682 39.9639 100.783 39.0959C100.886 38.2279 100.828 37.3649 100.639 36.5669C100.463 35.7609 100.119 35.0339 99.7251 34.3899C99.3351 33.7389 98.8381 33.2029 98.3271 32.7559C98.1961 32.6489 98.0681 32.5389 97.9391 32.4369C97.8021 32.3439 97.6681 32.2539 97.5361 32.1649C97.4691 32.1219 97.4051 32.0719 97.3371 32.0349C97.2691 31.9949 97.2011 31.9599 97.1351 31.9239C96.9961 31.8519 96.866 31.7779 96.735 31.7099C96.192 31.4719 95.6751 31.2869 95.1911 31.1929C95.0691 31.1689 94.9511 31.1449 94.8361 31.1209C94.7221 31.0969 94.6081 31.0939 94.4991 31.0789C94.2801 31.0599 94.0761 31.0299 93.8811 31.0389C93.6901 31.0399 93.511 31.0389 93.347 31.0449C93.186 31.0649 93.0381 31.0809 92.9061 31.0979C92.7751 31.1109 92.8401 31.1169 93.0131 31.1139C93.0971 31.1119 93.2081 31.1099 93.3361 31.1049C93.4631 31.1059 93.6071 31.1199 93.7521 31.1269C94.0461 31.1339 94.3511 31.1949 94.5821 31.2309C94.6411 31.2399 94.6931 31.2509 94.7401 31.2579C94.7881 31.2709 94.8281 31.2849 94.8631 31.2929C94.9291 31.3119 94.9671 31.3259 94.9671 31.3309C94.9651 31.3329 94.9451 31.3309 94.9041 31.3239C94.8651 31.3169 94.8061 31.3029 94.7301 31.2899C94.5801 31.2729 94.366 31.2489 94.11 31.2219C93.597 31.1989 92.9141 31.1879 92.2651 31.3319C92.1831 31.3459 92.1021 31.3619 92.0211 31.3739C91.9441 31.3959 91.865 31.4199 91.787 31.4409C91.634 31.4849 91.4831 31.5219 91.3411 31.5689C91.2021 31.6229 91.0691 31.6759 90.9441 31.7219C90.8181 31.7739 90.7041 31.8129 90.6051 31.8679C90.2101 32.0759 89.9951 32.1919 90.1141 32.1409C90.5851 31.9269 91.4541 31.5319 92.6671 31.3999C93.2681 31.3529 93.9491 31.3549 94.6651 31.4909C95.3771 31.6319 96.1211 31.8949 96.8271 32.3019C97.5291 32.7099 98.1911 33.2649 98.7291 33.9419C99.2721 34.6199 99.6971 35.4189 99.9501 36.2709C100.201 37.1229 100.278 38.0279 100.183 38.9009C100.093 39.7759 99.8281 40.6169 99.4371 41.3539C99.0471 42.0939 98.53 42.7509 97.929 43.2789C97.325 43.8049 96.6441 44.2079 95.9451 44.4899C95.8551 44.5249 95.7681 44.5579 95.6801 44.5919L95.5511 44.6429L95.416 44.6799C95.237 44.7279 95.0621 44.7779 94.8841 44.8259C94.7041 44.8559 94.5281 44.8869 94.3531 44.9159C94.2621 44.9339 94.1741 44.9419 94.0881 44.9469C94.0001 44.9529 93.9111 44.9609 93.8241 44.9659C93.7381 44.9699 93.6501 44.9829 93.5621 44.9819C93.4761 44.9809 93.3901 44.9779 93.3051 44.9769C93.1341 44.9669 92.9651 44.9799 92.7991 44.9519C92.6331 44.9329 92.4711 44.9149 92.3101 44.8949C92.1511 44.8639 91.9951 44.8269 91.8371 44.7949C91.6811 44.7679 91.5321 44.7169 91.3851 44.6709C91.2411 44.6209 91.0911 44.5879 90.9561 44.5289C90.6841 44.4099 90.4081 44.3109 90.1701 44.1689C90.0461 44.1019 89.9271 44.0419 89.8131 43.9729C89.7001 43.8999 89.5911 43.8259 89.4831 43.7529C89.2621 43.6219 89.0851 43.4519 88.9001 43.3089C88.1831 42.6979 87.7461 42.0759 87.4521 41.6509C87.3771 41.5449 87.4721 41.7099 87.6541 42.0179C87.7021 42.0929 87.7491 42.1829 87.8121 42.2699C87.8761 42.3579 87.9451 42.4489 88.0201 42.5469C88.0941 42.6419 88.1661 42.7499 88.2551 42.8469C88.3461 42.9419 88.4381 43.0419 88.5301 43.1419L88.6701 43.2919C88.7171 43.3399 88.7711 43.3829 88.8201 43.4269C88.9221 43.5179 89.0251 43.6059 89.1221 43.6929C89.3221 43.8619 89.5291 43.9949 89.6991 44.1239C89.8771 44.2399 90.0341 44.3269 90.1411 44.3919C90.2481 44.4599 90.3081 44.4989 90.3081 44.5019C90.3081 44.5109 90.177 44.4479 89.985 44.3539Z" fill="#E6E7E8"/>
<path d="M54.5602 17.0829C30.8561 17.0829 11.6392 36.3009 11.6392 60.0049C11.6392 83.7089 30.8561 102.926 54.5602 102.926C78.2642 102.926 97.4802 83.7089 97.4802 60.0049C97.4792 36.3009 78.2642 17.0829 54.5602 17.0829Z" fill="#E6E7E8"/>
<path d="M78.6452 60.004C78.6452 73.307 67.8612 84.091 54.5582 84.091C41.2552 84.091 30.4712 73.307 30.4712 60.004C30.4712 46.701 41.2552 35.917 54.5582 35.917C67.8612 35.917 78.6452 46.702 78.6452 60.004Z" fill="#939598"/>
<path d="M72.223 60.004C72.223 69.759 64.315 77.668 54.559 77.668C44.804 77.668 36.895 69.759 36.895 60.004C36.895 50.248 44.804 42.339 54.559 42.339C64.314 42.34 72.223 50.248 72.223 60.004Z" fill="#F1F2F2"/>
<path opacity="0.1" d="M53.9209 77.636C54.1349 77.644 54.3439 77.668 54.5589 77.668C64.3149 77.668 72.2229 69.759 72.2229 60.004C72.2229 50.248 64.3149 42.339 54.5589 42.339C54.3439 42.339 54.1349 42.364 53.9209 42.371V77.636Z" fill="#939598"/>
<path opacity="0.1" d="M36.926 59.3669C36.918 59.5799 36.895 59.7889 36.895 60.0049C36.895 69.7609 44.803 77.6689 54.559 77.6689C64.315 77.6689 72.223 69.7609 72.223 60.0049C72.223 59.7899 72.198 59.5809 72.191 59.3669H36.926Z" fill="#939598"/>
</svg>
